<?xml version="1.0" encoding="UTF-8"?>
<svg width="34px" height="34px" viewBox="0 0 34 34" version="1.1" xmlns="http://www.w3.org/2000/svg" xmlns:xlink="http://www.w3.org/1999/xlink">
    <!-- Generator: Sketch 59 (86127) - https://sketch.com -->
    <title>编组 38</title>
    <desc>Created with Sketch.</desc>
    <g id="风" stroke="none" stroke-width="1" fill="none" fill-rule="evenodd">
        <g id="1920-dashboard-弹窗-1" transform="translate(-39.000000, -145.000000)" fill="#8493A8" fill-rule="nonzero">
            <g id="编组-38" transform="translate(39.000000, 145.000000)">
                <g id="编组-3">
                    <g id="编组-47">
                        <path d="M17,0.5 C26.1126984,0.5 33.5,7.88730163 33.5,17 C33.5,26.1126984 26.1126984,33.5 17,33.5 C7.88730163,33.5 0.5,26.1126984 0.5,17 C0.5,7.88730163 7.88730163,0.5 17,0.5 Z M17,1.5 C8.43958638,1.5 1.5,8.43958638 1.5,17 C1.5,25.5604136 8.43958638,32.5 17,32.5 C25.5604136,32.5 32.5,25.5604136 32.5,17 C32.5,8.43958638 25.5604136,1.5 17,1.5 Z" id="椭圆形备份-3" opacity="0.449999988"></path>
                        <path d="M15.70125,18.80085 C15.82725,18.678 16.0257,18.678 16.1454,18.8103 C16.26825,18.93315 16.2651,19.1316 16.14225,19.25445 L16.14225,19.25445 L13.09305,22.25955 L14.71845,22.25955 C14.8917,22.25955 15.03345,22.4013 15.03345,22.57455 C15.03345,22.7478 14.8917,22.88955 14.71845,22.88955 L14.71845,22.88955 L12.29295,22.88955 C12.28665,22.88955 12.2835,22.8864 12.2772,22.8864 C12.2709,22.8864 12.26775,22.88325 12.26145,22.88325 C12.25515,22.88325 12.252,22.8801 12.2457,22.8801 C12.24255,22.8801 12.23625,22.87695 12.2331,22.87695 L12.2331,22.87695 L12.21735,22.87065 L12.21735,22.87065 L12.20475,22.86435 C12.2016,22.8612 12.1953,22.8612 12.19215,22.85805 L12.19215,22.85805 L12.1764,22.85175 C12.17325,22.85175 12.16695,22.8486 12.1638,22.84545 C12.1575,22.8423 12.1512,22.83915 12.14805,22.836 C12.14175,22.8297 12.1386,22.82655 12.1323,22.8234 C12.12915,22.8171 12.12285,22.81395 12.1197,22.8108 C12.1134,22.80765 12.1071,22.80135 12.1008,22.79505 L12.1008,22.79505 L12.09765,22.790325 C12.09135,22.78245 12.08505,22.7793 12.0819,22.773 C12.07875,22.76985 12.0756,22.76355 12.07245,22.7604 C12.0693,22.75725 12.06615,22.75095 12.063,22.7478 L12.058275,22.7415 C12.05355,22.73205 12.0504,22.72575 12.04725,22.7226 L12.04725,22.7226 L12.04095,22.70685 C12.0378,22.7037 12.0378,22.6974 12.03465,22.69425 L12.0315,22.686375 L12.0240188,22.670625 L12.0240188,22.670625 C12.02205,22.65645 12.0189,22.6533 12.0189,22.647 L12.017325,22.639125 C12.0126,22.62495 12.0126,22.6218 12.0126,22.6155 C12.00945,22.6092 12.00945,22.60605 12.00945,22.59975 L12.00945,19.92225 C12.00945,19.749 12.1512,19.60725 12.32445,19.60725 C12.4977,19.60725 12.63945,19.749 12.63945,19.92225 L12.63945,19.92225 L12.63945,21.81855 Z M18.87015,18.7473 C18.993,18.62445 19.19145,18.6276 19.3143,18.75045 L19.3143,18.75045 L22.3194,21.79965 L22.3194,20.17425 C22.3194,20.001 22.46115,19.85925 22.6344,19.85925 C22.8108,19.85925 22.9494,20.001 22.95255,20.17425 L22.95255,20.17425 L22.95255,22.59975 C22.95255,22.61235 22.95255,22.6218 22.9494,22.63125 C22.9494,22.63755 22.94625,22.6407 22.94625,22.647 C22.94625,22.65015 22.9431,22.65645 22.9431,22.6596 L22.9431,22.6596 L22.9368,22.67535 C22.93365,22.68165 22.93365,22.68795 22.9305,22.6911 C22.92735,22.69425 22.92735,22.70055 22.9242,22.7037 C22.9242,22.71 22.92105,22.71315 22.9179,22.71945 C22.91475,22.7226 22.91475,22.72575 22.9116,22.7289 L22.9116,22.7289 L22.90215,22.74465 L22.90215,22.74465 L22.88955,22.7604 C22.8864,22.7667 22.8801,22.76985 22.87695,22.77615 C22.87065,22.7793 22.8675,22.7856 22.8612,22.7919 L22.8612,22.7919 L22.856475,22.7938688 C22.8486,22.80135 22.8423,22.80765 22.83915,22.8108 C22.836,22.81395 22.8297,22.8171 22.82655,22.82025 C22.8234,22.8234 22.8171,22.82655 22.81395,22.8297 L22.80765,22.834425 C22.7982,22.83915 22.7919,22.8423 22.78875,22.84545 L22.78875,22.84545 L22.773,22.85175 C22.76985,22.8549 22.76355,22.8549 22.7604,22.85805 L22.752525,22.8612 L22.736775,22.8686813 L22.736775,22.8686813 C22.7226,22.87065 22.71945,22.8738 22.71315,22.8738 L22.705275,22.875375 C22.69425,22.8801 22.68795,22.8801 22.68165,22.8801 C22.6785,22.88325 22.6722,22.88325 22.66905,22.88325 L19.9884,22.88325 C19.81515,22.88325 19.6734,22.7415 19.6734,22.56825 C19.6734,22.395 19.81515,22.25325 19.9884,22.25325 L19.9884,22.25325 L21.8847,22.25325 L18.867,19.19145 C18.74415,19.0686 18.7473,18.87015 18.87015,18.7473 Z M14.98305,12.0315 C15.1563,12.0315 15.29805,12.17325 15.29805,12.3465 C15.29805,12.51975 15.1563,12.6615 14.98305,12.6615 L14.98305,12.6615 L13.08675,12.6615 L16.1013,15.72645 C16.22415,15.8493 16.221,16.04775 16.09815,16.1706 C16.0383,16.23045 15.9564,16.26195 15.87765,16.26195 C15.79575,16.26195 15.717,16.23045 15.654,16.16745 L15.654,16.16745 L12.6489,13.11825 L12.6489,14.74365 C12.6489,14.9169 12.50715,15.05865 12.3339,15.05865 C12.16065,15.05865 12.0189,14.9169 12.02205,14.74365 L12.02205,14.74365 L12.0224437,12.300825 L12.0224437,12.300825 L12.0252,12.28665 C12.0252,12.2835 12.02835,12.2772 12.02835,12.2709 C12.02835,12.26775 12.0315,12.26145 12.0315,12.2583 C12.03465,12.252 12.03465,12.24885 12.0378,12.24255 C12.04095,12.2394 12.04095,12.2331 12.0441,12.22995 L12.04725,12.22365 C12.05355,12.21105 12.05355,12.20475 12.0567,12.2016 C12.0567,12.1953 12.05985,12.19215 12.063,12.189 C12.06615,12.1827 12.0693,12.17955 12.07245,12.17325 C12.0756,12.1638 12.0819,12.1575 12.0882,12.1512 C12.0882,12.14805 12.09135,12.1449 12.0945,12.14175 C12.09765,12.13545 12.10395,12.12915 12.11025,12.12285 L12.11025,12.12285 L12.1122187,12.1197 C12.12285,12.1134 12.126,12.1071 12.1323,12.10395 C12.13545,12.1008 12.14175,12.09765 12.1449,12.0945 C12.14805,12.09135 12.15435,12.0882 12.1575,12.08505 C12.16065,12.0819 12.16695,12.07875 12.1701,12.0756 C12.17325,12.0756 12.17955,12.07245 12.1827,12.0693 C12.189,12.06615 12.19215,12.06615 12.19845,12.063 L12.20475,12.05985 L12.21105,12.0567 L12.2268,12.0504 C12.2331,12.04725 12.23625,12.0441 12.24255,12.0441 C12.24885,12.0441 12.252,12.04095 12.2583,12.04095 C12.2646,12.04095 12.26775,12.0378 12.27405,12.0378 C12.2772,12.03465 12.2835,12.03465 12.2898,12.03465 C12.29295,12.0315 12.29925,12.0315 12.3024,12.0315 Z M22.66275,12.02835 C22.6722,12.02835 22.6785,12.0315 22.68795,12.0315 C22.69425,12.03465 22.6974,12.03465 22.70055,12.03465 C22.70685,12.0378 22.71315,12.0378 22.71945,12.04095 C22.7226,12.04095 22.72575,12.0441 22.7289,12.0441 C22.73205,12.04725 22.73835,12.04725 22.74465,12.0504 C22.7478,12.0504 22.7541,12.0504 22.75725,12.05355 C22.76355,12.05355 22.7667,12.0567 22.773,12.05985 L22.7793,12.063 L22.7856,12.06615 L22.7982,12.0756 C22.80135,12.07875 22.80765,12.0819 22.8108,12.08505 C22.8171,12.09135 22.82025,12.0945 22.82655,12.09765 C22.8297,12.09765 22.83285,12.1008 22.836,12.10395 L22.836,12.10395 L22.85805,12.126 L22.85805,12.126 L22.8612,12.1279688 C22.8675,12.1386 22.8738,12.14175 22.87695,12.14805 C22.8801,12.1512 22.88325,12.1575 22.8864,12.16065 L22.8864,12.16065 L22.89585,12.17325 C22.899,12.1764 22.90215,12.1827 22.9053,12.18585 C22.9053,12.189 22.90845,12.1953 22.9116,12.19845 C22.91475,12.20475 22.91475,12.2079 22.9179,12.2142 C22.92105,12.21735 22.92105,12.22365 22.9242,12.2268 C22.92735,12.2331 22.92735,12.23625 22.9305,12.24255 L22.9348312,12.250425 C22.9368,12.2646 22.93995,12.26775 22.93995,12.27405 L22.941525,12.281925 C22.94625,12.2961 22.94625,12.29925 22.94625,12.30555 C22.9494,12.3087 22.9494,12.31185 22.9494,12.31815 L22.9490062,12.3276 L22.9490062,12.3276 L22.94625,12.33705 L22.94625,14.9925 C22.94625,15.16575 22.8045,15.3075 22.63125,15.3075 C22.458,15.3075 22.31625,15.16575 22.31625,14.9925 L22.31625,14.9925 L22.31625,13.09935 L19.2639,16.1202 C19.20405,16.18005 19.12215,16.21155 19.0434,16.21155 C18.9615,16.21155 18.88275,16.18005 18.81975,16.11705 C18.6969,15.9942 18.70005,15.79575 18.8229,15.6729 L18.8229,15.6729 L21.86895,12.65835 L20.2404,12.65835 C20.06715,12.65835 19.9254,12.5166 19.9254,12.34335 C19.9254,12.1701 20.06715,12.02835 20.2404,12.02835 L20.2404,12.02835 Z" id="形状结合"></path>
                    </g>
                </g>
            </g>
        </g>
    </g>
</svg>