<?xml version="1.0" encoding="UTF-8"?>
<svg width="15px" height="13px" viewBox="0 0 15 13" version="1.1" xmlns="http://www.w3.org/2000/svg" xmlns:xlink="http://www.w3.org/1999/xlink">
    <!-- Generator: Sketch 59 (86127) - https://sketch.com -->
    <title>事件</title>
    <desc>Created with Sketch.</desc>
    <g id="页面-1" stroke="none" stroke-width="1" fill="none" fill-rule="evenodd">
        <g id="大气-圆形icon" transform="translate(-320.000000, -654.000000)" fill="#D7E9FF">
            <path d="M327.562178,654.134142 C327.714197,654.22191 327.840435,654.348148 327.928203,654.500167 L333.990381,665.000167 C334.266523,665.47846 334.102648,666.09005 333.624356,666.366192 C333.472336,666.453961 333.299892,666.500167 333.124356,666.500167 L321,666.500167 C320.447715,666.500167 320,666.052452 320,665.500167 C320,665.32463 320.046206,665.152186 320.133975,665.000167 L326.196152,654.500167 C326.472295,654.021874 327.083885,653.857999 327.562178,654.134142 Z M327.109983,663.972282 C326.749235,663.972282 326.45679,664.271612 326.45679,664.640854 C326.45679,665.010096 326.749235,665.309425 327.109983,665.309425 C327.470732,665.309425 327.763177,665.010096 327.763177,664.640854 C327.763177,664.271612 327.470732,663.972282 327.109983,663.972282 Z M327.187177,657.47514 L326.996502,657.47514 C326.678386,657.47514 326.420502,657.733024 326.420502,658.05114 L326.420502,658.05114 L326.420502,662.396282 C326.420502,662.714398 326.678386,662.972282 326.996502,662.972282 L326.996502,662.972282 L327.187177,662.972282 C327.505293,662.972282 327.763177,662.714398 327.763177,662.396282 L327.763177,662.396282 L327.763177,658.05114 C327.763177,657.733024 327.505293,657.47514 327.187177,657.47514 L327.187177,657.47514 Z" id="事件"></path>
        </g>
    </g>
</svg>