<?xml version="1.0" encoding="UTF-8"?>
<svg width="15px" height="13px" viewBox="0 0 15 13" version="1.1" xmlns="http://www.w3.org/2000/svg" xmlns:xlink="http://www.w3.org/1999/xlink">
    <!-- Generator: Sketch 59 (86127) - https://sketch.com -->
    <title>云图</title>
    <desc>Created with Sketch.</desc>
    <g id="页面-1" stroke="none" stroke-width="1" fill="none" fill-rule="evenodd">
        <g id="大气-圆形icon" transform="translate(-319.000000, -725.000000)" fill="#D7E9FF" fill-rule="nonzero">
            <path d="M323.905,734.135 C324.175,734.135 324.355,734.36 324.355,734.585 L324.355,736.925 C324.355,737.195 324.175,737.375 323.905,737.375 L322.42,737.375 C322.15,737.375 321.97,737.195 321.97,736.925 L321.97,734.585 C321.97,734.315 322.15,734.135 322.42,734.135 L323.905,734.135 Z M330.34,730.085 C330.61,730.085 330.79,730.31 330.79,730.535 L330.79,736.925 C330.79,737.195 330.565,737.375 330.34,737.375 L328.855,737.375 C328.63,737.375 328.405,737.195 328.405,736.925 L328.405,730.535 C328.405,730.265 328.63,730.085 328.855,730.085 L330.34,730.085 Z M327.19,732.785 C327.46,732.785 327.64,733.01 327.64,733.235 L327.64,736.925 C327.64,737.195 327.415,737.375 327.19,737.375 L325.705,737.375 C325.435,737.375 325.255,737.195 325.255,736.925 L325.255,733.235 C325.255,732.965 325.435,732.785 325.705,732.785 L327.19,732.785 Z M323.455,725.135 C323.905,725.135 324.355,725.27 324.715,725.54 C325.165,725.315 325.705,725.225 326.2,725.225 C327.55,725.225 328.81,725.945 329.485,727.115 C329.755,727.025 330.025,726.98 330.295,726.98 C331.96,727.115 333.265,728.42 333.265,730.04 C333.265,731.165 332.635,732.155 331.69,732.605 L331.69,730.535 C331.69,729.77 331.06,729.185 330.34,729.185 L328.855,729.185 C328.09,729.185 327.505,729.77 327.505,730.535 L327.505,731.93 C327.415,731.885 327.28,731.885 327.19,731.885 L325.705,731.885 C325.075,731.885 324.535,732.335 324.4,732.92 L321.655,732.92 C320.26,732.92 319.135,731.795 319.135,730.4 C319.135,729.05 320.17,727.97 321.475,727.88 C321.025,726.44 322.105,725.135 323.455,725.135 Z" id="云图"></path>
        </g>
    </g>
</svg>