<?xml version="1.0" encoding="UTF-8"?>
<svg width="32px" height="32px" viewBox="0 0 32 32" version="1.1" xmlns="http://www.w3.org/2000/svg" xmlns:xlink="http://www.w3.org/1999/xlink">
    <!-- Generator: Sketch 59 (86127) - https://sketch.com -->
    <title>全屏</title>
    <desc>Created with Sketch.</desc>
    <g id="页面-1" stroke="none" stroke-width="1" fill="none" fill-rule="evenodd">
        <g id="大气放大--圆形" transform="translate(-40.000000, -146.000000)">
            <g id="全屏" transform="translate(40.000000, 146.000000)">
                <g id="编组-47">
                    <circle id="椭圆形备份-3" fill="#324258" cx="16" cy="16" r="16"></circle>
                    <path d="M14.70125,17.80085 C14.82725,17.678 15.0257,17.678 15.1454,17.8103 C15.26825,17.93315 15.2651,18.1316 15.14225,18.25445 L15.14225,18.25445 L12.09305,21.25955 L13.71845,21.25955 C13.8917,21.25955 14.03345,21.4013 14.03345,21.57455 C14.03345,21.7478 13.8917,21.88955 13.71845,21.88955 L13.71845,21.88955 L11.29295,21.88955 C11.28665,21.88955 11.2835,21.8864 11.2772,21.8864 C11.2709,21.8864 11.26775,21.88325 11.26145,21.88325 C11.25515,21.88325 11.252,21.8801 11.2457,21.8801 C11.24255,21.8801 11.23625,21.87695 11.2331,21.87695 L11.2331,21.87695 L11.21735,21.87065 L11.21735,21.87065 L11.20475,21.86435 C11.2016,21.8612 11.1953,21.8612 11.19215,21.85805 L11.19215,21.85805 L11.1764,21.85175 C11.17325,21.85175 11.16695,21.8486 11.1638,21.84545 C11.1575,21.8423 11.1512,21.83915 11.14805,21.836 C11.14175,21.8297 11.1386,21.82655 11.1323,21.8234 C11.12915,21.8171 11.12285,21.81395 11.1197,21.8108 C11.1134,21.80765 11.1071,21.80135 11.1008,21.79505 L11.1008,21.79505 L11.09765,21.790325 C11.09135,21.78245 11.08505,21.7793 11.0819,21.773 C11.07875,21.76985 11.0756,21.76355 11.07245,21.7604 C11.0693,21.75725 11.06615,21.75095 11.063,21.7478 L11.058275,21.7415 C11.05355,21.73205 11.0504,21.72575 11.04725,21.7226 L11.04725,21.7226 L11.04095,21.70685 C11.0378,21.7037 11.0378,21.6974 11.03465,21.69425 L11.0315,21.686375 L11.0240188,21.670625 L11.0240188,21.670625 C11.02205,21.65645 11.0189,21.6533 11.0189,21.647 L11.017325,21.639125 C11.0126,21.62495 11.0126,21.6218 11.0126,21.6155 C11.00945,21.6092 11.00945,21.60605 11.00945,21.59975 L11.00945,18.92225 C11.00945,18.749 11.1512,18.60725 11.32445,18.60725 C11.4977,18.60725 11.63945,18.749 11.63945,18.92225 L11.63945,18.92225 L11.63945,20.81855 Z M17.87015,17.7473 C17.993,17.62445 18.19145,17.6276 18.3143,17.75045 L18.3143,17.75045 L21.3194,20.79965 L21.3194,19.17425 C21.3194,19.001 21.46115,18.85925 21.6344,18.85925 C21.8108,18.85925 21.9494,19.001 21.95255,19.17425 L21.95255,19.17425 L21.95255,21.59975 C21.95255,21.61235 21.95255,21.6218 21.9494,21.63125 C21.9494,21.63755 21.94625,21.6407 21.94625,21.647 C21.94625,21.65015 21.9431,21.65645 21.9431,21.6596 L21.9431,21.6596 L21.9368,21.67535 C21.93365,21.68165 21.93365,21.68795 21.9305,21.6911 C21.92735,21.69425 21.92735,21.70055 21.9242,21.7037 C21.9242,21.71 21.92105,21.71315 21.9179,21.71945 C21.91475,21.7226 21.91475,21.72575 21.9116,21.7289 L21.9116,21.7289 L21.90215,21.74465 L21.90215,21.74465 L21.88955,21.7604 C21.8864,21.7667 21.8801,21.76985 21.87695,21.77615 C21.87065,21.7793 21.8675,21.7856 21.8612,21.7919 L21.8612,21.7919 L21.856475,21.7938688 C21.8486,21.80135 21.8423,21.80765 21.83915,21.8108 C21.836,21.81395 21.8297,21.8171 21.82655,21.82025 C21.8234,21.8234 21.8171,21.82655 21.81395,21.8297 L21.80765,21.834425 C21.7982,21.83915 21.7919,21.8423 21.78875,21.84545 L21.78875,21.84545 L21.773,21.85175 C21.76985,21.8549 21.76355,21.8549 21.7604,21.85805 L21.752525,21.8612 L21.736775,21.8686813 L21.736775,21.8686813 C21.7226,21.87065 21.71945,21.8738 21.71315,21.8738 L21.705275,21.875375 C21.69425,21.8801 21.68795,21.8801 21.68165,21.8801 C21.6785,21.88325 21.6722,21.88325 21.66905,21.88325 L18.9884,21.88325 C18.81515,21.88325 18.6734,21.7415 18.6734,21.56825 C18.6734,21.395 18.81515,21.25325 18.9884,21.25325 L18.9884,21.25325 L20.8847,21.25325 L17.867,18.19145 C17.74415,18.0686 17.7473,17.87015 17.87015,17.7473 Z M13.98305,11.0315 C14.1563,11.0315 14.29805,11.17325 14.29805,11.3465 C14.29805,11.51975 14.1563,11.6615 13.98305,11.6615 L13.98305,11.6615 L12.08675,11.6615 L15.1013,14.72645 C15.22415,14.8493 15.221,15.04775 15.09815,15.1706 C15.0383,15.23045 14.9564,15.26195 14.87765,15.26195 C14.79575,15.26195 14.717,15.23045 14.654,15.16745 L14.654,15.16745 L11.6489,12.11825 L11.6489,13.74365 C11.6489,13.9169 11.50715,14.05865 11.3339,14.05865 C11.16065,14.05865 11.0189,13.9169 11.02205,13.74365 L11.02205,13.74365 L11.0224437,11.300825 L11.0224437,11.300825 L11.0252,11.28665 C11.0252,11.2835 11.02835,11.2772 11.02835,11.2709 C11.02835,11.26775 11.0315,11.26145 11.0315,11.2583 C11.03465,11.252 11.03465,11.24885 11.0378,11.24255 C11.04095,11.2394 11.04095,11.2331 11.0441,11.22995 L11.04725,11.22365 C11.05355,11.21105 11.05355,11.20475 11.0567,11.2016 C11.0567,11.1953 11.05985,11.19215 11.063,11.189 C11.06615,11.1827 11.0693,11.17955 11.07245,11.17325 C11.0756,11.1638 11.0819,11.1575 11.0882,11.1512 C11.0882,11.14805 11.09135,11.1449 11.0945,11.14175 C11.09765,11.13545 11.10395,11.12915 11.11025,11.12285 L11.11025,11.12285 L11.1122187,11.1197 C11.12285,11.1134 11.126,11.1071 11.1323,11.10395 C11.13545,11.1008 11.14175,11.09765 11.1449,11.0945 C11.14805,11.09135 11.15435,11.0882 11.1575,11.08505 C11.16065,11.0819 11.16695,11.07875 11.1701,11.0756 C11.17325,11.0756 11.17955,11.07245 11.1827,11.0693 C11.189,11.06615 11.19215,11.06615 11.19845,11.063 L11.20475,11.05985 L11.21105,11.0567 L11.2268,11.0504 C11.2331,11.04725 11.23625,11.0441 11.24255,11.0441 C11.24885,11.0441 11.252,11.04095 11.2583,11.04095 C11.2646,11.04095 11.26775,11.0378 11.27405,11.0378 C11.2772,11.03465 11.2835,11.03465 11.2898,11.03465 C11.29295,11.0315 11.29925,11.0315 11.3024,11.0315 Z M21.66275,11.02835 C21.6722,11.02835 21.6785,11.0315 21.68795,11.0315 C21.69425,11.03465 21.6974,11.03465 21.70055,11.03465 C21.70685,11.0378 21.71315,11.0378 21.71945,11.04095 C21.7226,11.04095 21.72575,11.0441 21.7289,11.0441 C21.73205,11.04725 21.73835,11.04725 21.74465,11.0504 C21.7478,11.0504 21.7541,11.0504 21.75725,11.05355 C21.76355,11.05355 21.7667,11.0567 21.773,11.05985 L21.7793,11.063 L21.7856,11.06615 L21.7982,11.0756 C21.80135,11.07875 21.80765,11.0819 21.8108,11.08505 C21.8171,11.09135 21.82025,11.0945 21.82655,11.09765 C21.8297,11.09765 21.83285,11.1008 21.836,11.10395 L21.836,11.10395 L21.85805,11.126 L21.85805,11.126 L21.8612,11.1279688 C21.8675,11.1386 21.8738,11.14175 21.87695,11.14805 C21.8801,11.1512 21.88325,11.1575 21.8864,11.16065 L21.8864,11.16065 L21.89585,11.17325 C21.899,11.1764 21.90215,11.1827 21.9053,11.18585 C21.9053,11.189 21.90845,11.1953 21.9116,11.19845 C21.91475,11.20475 21.91475,11.2079 21.9179,11.2142 C21.92105,11.21735 21.92105,11.22365 21.9242,11.2268 C21.92735,11.2331 21.92735,11.23625 21.9305,11.24255 L21.9348312,11.250425 C21.9368,11.2646 21.93995,11.26775 21.93995,11.27405 L21.941525,11.281925 C21.94625,11.2961 21.94625,11.29925 21.94625,11.30555 C21.9494,11.3087 21.9494,11.31185 21.9494,11.31815 L21.9490062,11.3276 L21.9490062,11.3276 L21.94625,11.33705 L21.94625,13.9925 C21.94625,14.16575 21.8045,14.3075 21.63125,14.3075 C21.458,14.3075 21.31625,14.16575 21.31625,13.9925 L21.31625,13.9925 L21.31625,12.09935 L18.2639,15.1202 C18.20405,15.18005 18.12215,15.21155 18.0434,15.21155 C17.9615,15.21155 17.88275,15.18005 17.81975,15.11705 C17.6969,14.9942 17.70005,14.79575 17.8229,14.6729 L17.8229,14.6729 L20.86895,11.65835 L19.2404,11.65835 C19.06715,11.65835 18.9254,11.5166 18.9254,11.34335 C18.9254,11.1701 19.06715,11.02835 19.2404,11.02835 L19.2404,11.02835 Z" id="形状结合" fill="#93AECE" fill-rule="nonzero"></path>
                </g>
            </g>
        </g>
    </g>
</svg>