<?xml version="1.0" encoding="UTF-8"?>
<svg width="16px" height="16px" viewBox="0 0 16 16" version="1.1" xmlns="http://www.w3.org/2000/svg" xmlns:xlink="http://www.w3.org/1999/xlink">
    <!-- Generator: Sketch 59 (86127) - https://sketch.com -->
    <title>卫星</title>
    <desc>Created with Sketch.</desc>
    <g id="页面-1" stroke="none" stroke-width="1" fill="none" fill-rule="evenodd">
        <g id="大气-圆形icon" transform="translate(-320.000000, -617.000000)" fill="#D7E9FF" fill-rule="nonzero">
            <path d="M323.51975,624.215488 C323.249,624.215488 323.08655,624.432088 323.08655,624.702838 C323.08655,627.247888 325.1984,629.359738 327.74345,629.359738 C328.0142,629.359738 328.2308,629.197288 328.2308,628.926538 L328.2308,627.626938 C328.2308,627.356188 328.0142,627.193738 327.74345,627.193738 C326.3897,627.193738 325.25255,626.056588 325.25255,624.702838 C325.25255,624.432088 325.0901,624.215488 324.81935,624.215488 L323.51975,624.215488 Z M320,624.756988 C320,628.926538 323.41145,632.175538 327.52685,632.175538 C327.74345,632.175538 327.96005,631.958938 327.96005,631.742338 L327.96005,630.388588 C327.96005,630.117838 327.74345,629.955388 327.4727,629.955388 C324.60275,629.901238 322.22015,627.681088 322.22015,624.756988 C322.22015,624.540388 322.0577,624.323788 321.78695,624.323788 L320.4332,624.323788 C320.2166,624.323788 320,624.540388 320,624.756988 Z M325.46915,623.294938 L326.66045,623.403238 L326.2814,623.782288 C326.11895,623.944738 326.11895,624.215488 326.2814,624.432088 L328.0142,626.164888 C328.2308,626.327338 328.50155,626.327338 328.664,626.164888 L329.04305,625.785838 L329.0972,626.977138 C329.15135,627.085438 329.15135,627.193738 329.25965,627.302038 C330.2885,628.330888 331.31735,629.413888 332.3462,630.442738 C332.50865,630.605188 332.7794,630.605188 332.996,630.442738 L335.21615,628.168438 C335.3786,627.951838 335.3786,627.681088 335.21615,627.518638 L332.1296,624.377938 C332.07545,624.323788 331.96715,624.269638 331.85885,624.215488 L330.66755,624.161338 L330.99245,623.782288 C331.20905,623.619838 331.20905,623.349088 330.99245,623.132488 L329.3138,621.453838 C329.0972,621.237238 328.82645,621.237238 328.664,621.453838 L328.28495,621.778738 L328.2308,620.533288 C328.17665,620.424988 328.1225,620.316688 328.06835,620.262538 L324.9818,617.121838 C324.81935,616.959388 324.5486,616.959388 324.332,617.121838 C323.62805,617.879938 322.86995,618.638038 322.11185,619.396138 C321.9494,619.558588 321.9494,619.829338 322.11185,620.045938 L325.1984,623.186638 C325.25255,623.240788 325.36085,623.294938 325.46915,623.294938 Z M328.9889,622.374388 L330.0719,623.457388 L328.3391,625.190188 L327.2561,624.107188 L328.9889,622.374388 Z" id="卫星"></path>
        </g>
    </g>
</svg>