<?xml version="1.0" encoding="UTF-8"?>
<svg width="16px" height="16px" viewBox="0 0 16 16" version="1.1" xmlns="http://www.w3.org/2000/svg" xmlns:xlink="http://www.w3.org/1999/xlink">
    <!-- Generator: Sketch 59 (86127) - https://sketch.com -->
    <title>扬尘源</title>
    <desc>Created with Sketch.</desc>
    <g id="页面-1" stroke="none" stroke-width="1" fill="none" fill-rule="evenodd">
        <g id="大气-圆形icon" transform="translate(-320.000000, -509.000000)" fill="#D7E9FF">
            <path d="M328,509 C332.418278,509 336,512.581722 336,517 C336,521.418278 332.418278,525 328,525 C323.581722,525 320,521.418278 320,517 C320,512.581722 323.581722,509 328,509 Z M330.404982,516.5 L325.690129,516.5 L324.260372,522.918429 C325.342215,523.603437 326.624796,524 328,524 C329.388056,524 330.681751,523.59599 331.769907,522.899148 L330.404982,516.5 Z M328.504084,514.5 L326.115754,514.5 C325.839612,514.5 325.615754,514.723858 325.615754,515 C325.615754,515.276142 325.839612,515.5 326.115754,515.5 L328.504084,515.5 C328.780226,515.5 329.004084,515.276142 329.004084,515 C329.004084,514.723858 328.780226,514.5 328.504084,514.5 Z M330.122485,514.5 L330,514.5 C329.723858,514.5 329.5,514.723858 329.5,515 C329.5,515.276142 329.723858,515.5 330,515.5 L330.122485,515.5 C330.398627,515.5 330.622485,515.276142 330.622485,515 C330.622485,514.723858 330.398627,514.5 330.122485,514.5 Z M326.504084,512.5 L325,512.5 C324.723858,512.5 324.5,512.723858 324.5,513 C324.5,513.276142 324.723858,513.5 325,513.5 L326.504084,513.5 C326.780226,513.5 327.004084,513.276142 327.004084,513 C327.004084,512.723858 326.780226,512.5 326.504084,512.5 Z M330.968727,512.5 L328,512.5 C327.723858,512.5 327.5,512.723858 327.5,513 C327.5,513.276142 327.723858,513.5 328,513.5 L330.968727,513.5 C331.244869,513.5 331.468727,513.276142 331.468727,513 C331.468727,512.723858 331.244869,512.5 330.968727,512.5 Z" id="扬尘源"></path>
        </g>
    </g>
</svg>