<?xml version="1.0" encoding="UTF-8"?>
<svg width="16px" height="16px" viewBox="0 0 16 16" version="1.1" xmlns="http://www.w3.org/2000/svg" xmlns:xlink="http://www.w3.org/1999/xlink">
    <!-- Generator: Sketch 59 (86127) - https://sketch.com -->
    <title>污染源</title>
    <desc>Created with Sketch.</desc>
    <g id="页面-1" stroke="none" stroke-width="1" fill="none" fill-rule="evenodd">
        <g id="大气-圆形icon" transform="translate(-320.000000, -473.000000)" fill="#D7E9FF" fill-rule="nonzero">
            <path d="M328,473 C323.581722,473 320,476.581722 320,481 C320,485.418278 323.581722,489 328,489 C332.418278,489 336,485.418278 336,481 C335.996507,476.583169 332.416831,473.003493 328,473 Z M327.99851,479.347585 C328.90116,479.347585 329.632933,480.079298 329.632933,480.981948 C329.632933,481.884598 328.901226,482.616377 327.998577,482.616377 C327.095927,482.616377 326.364141,481.884676 326.364141,480.982027 C326.364141,480.079379 327.095863,479.347629 327.99851,479.347585 Z M321.461611,480.886846 C321.493671,478.618924 322.699443,476.529842 324.647181,475.367619 L326.650343,478.837204 C325.941286,479.28271 325.498409,480.050023 325.467333,480.886846 L321.461611,480.886846 Z M327.998533,487.519681 C326.882899,487.52144 325.785548,487.236333 324.811867,486.691733 L326.815078,483.222027 C327.555675,483.612808 328.44142,483.612798 329.182008,483.222027 L331.185196,486.691741 C330.211516,487.236337 329.114166,487.521441 327.998533,487.519681 L327.998533,487.519681 Z M330.529714,480.886857 C330.498711,480.049981 330.055799,479.282632 329.346667,478.837192 L331.349867,475.367619 C333.297645,476.529819 334.503442,478.618924 334.535482,480.886857 L330.529714,480.886857 Z" id="污染源"></path>
        </g>
    </g>
</svg>