<?xml version="1.0" encoding="UTF-8"?>
<svg width="13px" height="16px" viewBox="0 0 13 16" version="1.1" xmlns="http://www.w3.org/2000/svg" xmlns:xlink="http://www.w3.org/1999/xlink">
    <!-- Generator: Sketch 59 (86127) - https://sketch.com -->
    <title>雷达</title>
    <desc>Created with Sketch.</desc>
    <g id="页面-1" stroke="none" stroke-width="1" fill="none" fill-rule="evenodd">
        <g id="大气-圆形icon" transform="translate(-322.000000, -580.000000)" fill="#D7E9FF" fill-rule="nonzero">
            <path d="M323.9437,590.2201 C324.0064,590.31415 324.0691,590.37685 324.16315,590.4709 C325.1977,591.4741 326.4517,592.1638 327.86245,592.44595 L327.86245,592.44595 L328.9597,595.3615 L322,595.3615 Z M331.62445,580.7524 C332.25145,580.15675 333.25465,580.15675 333.8503,580.7524 C334.44595,581.3794 334.44595,582.3826 333.8503,582.97825 C333.5995,583.22905 333.286,583.35445 332.9725,583.41715 L332.9725,583.41715 L331.9693,588.18235 L333.913,590.12605 C331.2796,592.54 327.2041,592.4773 324.66475,589.93795 C322.1254,587.3986 322.0627,583.3231 324.47665,580.72105 L324.47665,580.72105 L326.42035,582.66475 L331.18555,581.6302 C331.24825,581.3167 331.37365,581.0032 331.62445,580.7524 Z M331.405,582.72745 L327.3295,583.5739 L331.06015,587.2732 L331.9066,583.1977 C331.81255,583.135 331.7185,583.0723 331.62445,583.0096 C331.5304,582.91555 331.4677,582.8215 331.405,582.72745 L331.405,582.72745 Z" id="雷达"></path>
        </g>
    </g>
</svg>