<?xml version="1.0" encoding="UTF-8"?>
<svg width="16px" height="16px" viewBox="0 0 16 16" version="1.1" xmlns="http://www.w3.org/2000/svg" xmlns:xlink="http://www.w3.org/1999/xlink">
    <!-- Generator: Sketch 59 (86127) - https://sketch.com -->
    <title>风场</title>
    <desc>Created with Sketch.</desc>
    <g id="页面-1" stroke="none" stroke-width="1" fill="none" fill-rule="evenodd">
        <g id="大气-圆形icon" transform="translate(-319.000000, -688.000000)" fill="#D7E9FF">
            <path d="M327,688 C331.418278,688 335,691.581722 335,696 C335,700.418278 331.418278,704 327,704 C322.581722,704 319,700.418278 319,696 C319,691.581722 322.581722,688 327,688 Z M323.380952,697.703209 L323.380952,697.703209 L323.380952,698.665775 L326.797619,698.665775 L326.903143,698.674342 C327.041429,698.697059 327.169048,698.764439 327.27381,698.870321 C327.404762,699.002674 327.47619,699.171123 327.47619,699.351604 C327.47619,699.532086 327.404762,699.700535 327.27381,699.832888 C327.142857,699.965241 326.97619,700.037433 326.797619,700.037433 C326.619048,700.037433 326.452381,699.965241 326.321429,699.832888 C326.190476,699.700535 326.119048,699.532086 326.119048,699.351604 L326.119048,699.351604 L325.166667,699.351604 L325.174433,699.51674 C325.210565,699.89756 325.372024,700.244987 325.642857,700.518717 C325.952381,700.831551 326.357143,701 326.797619,701 C327.238095,701 327.642857,700.831551 327.952381,700.518717 C328.261905,700.205882 328.428571,699.796791 328.428571,699.351604 C328.428571,698.918449 328.261905,698.497326 327.952381,698.184492 C327.642857,697.871658 327.22619,697.703209 326.797619,697.703209 L326.797619,697.703209 Z M330.369048,694.647059 L330.369048,694.647059 L330.475714,694.655626 C330.616667,694.678342 330.75,694.745722 330.845238,694.851604 C330.97619,694.983957 331.047619,695.152406 331.047619,695.332888 C331.047619,695.513369 330.97619,695.681818 330.845238,695.814171 C330.714286,695.946524 330.547619,696.018717 330.369048,696.018717 L330.369048,696.018717 L322.190476,696.018717 L322.190476,696.981283 L330.369048,696.981283 L330.529018,696.973434 C330.900112,696.936915 331.252976,696.77373 331.52381,696.5 C331.833333,696.187166 332,695.778075 332,695.332888 C332,694.899733 331.833333,694.47861 331.52381,694.165775 C331.214286,693.852941 330.809524,693.684492 330.369048,693.684492 L330.369048,693.684492 Z M327.988095,692 C327.083333,692 326.357143,692.733957 326.357143,693.648396 L326.357143,693.648396 L327.309524,693.648396 L327.31701,693.548351 C327.366293,693.221108 327.652597,692.962567 327.988095,692.962567 C328.357143,692.962567 328.666667,693.275401 328.666667,693.648396 C328.666667,694.02139 328.357143,694.334225 327.988095,694.334225 L327.988095,694.334225 L321,694.334225 L321,695.296791 L327.988095,695.296791 L328.129389,695.290773 C328.967287,695.219033 329.619048,694.514706 329.619048,693.648396 C329.619048,692.733957 328.892857,692 327.988095,692 Z" id="风场"></path>
        </g>
    </g>
</svg>