<?xml version="1.0" encoding="UTF-8"?>
<svg width="34px" height="34px" viewBox="0 0 34 34" version="1.1" xmlns="http://www.w3.org/2000/svg" xmlns:xlink="http://www.w3.org/1999/xlink">
    <!-- Generator: Sketch 59 (86127) - https://sketch.com -->
    <title>编组 36</title>
    <desc>Created with Sketch.</desc>
    <g id="风" stroke="none" stroke-width="1" fill="none" fill-rule="evenodd">
        <g id="1920-dashboard-弹窗-1" transform="translate(-39.000000, -73.000000)" fill="#8493A8">
            <g id="编组-36" transform="translate(39.500000, 73.500000)">
                <path d="M16.5,0 C25.6126984,0 33,7.38730163 33,16.5 C33,25.6126984 25.6126984,33 16.5,33 C7.38730163,33 0,25.6126984 0,16.5 C0,7.38730163 7.38730163,0 16.5,0 Z M16.5,1 C7.93958638,1 1,7.93958638 1,16.5 C1,25.0604136 7.93958638,32 16.5,32 C25.0604136,32 32,25.0604136 32,16.5 C32,7.93958638 25.0604136,1 16.5,1 Z" id="椭圆形备份" fill-rule="nonzero" opacity="0.449999988"></path>
                <g id="编组-2备份" transform="translate(10.500000, 15.500000)">
                    <polygon id="矩形" transform="translate(5.800000, 1.288462) rotate(-90.000000) translate(-5.800000, -1.288462) " points="5 -4 6.6 -4 6.6 6.57692308 5 6.57692308"></polygon>
                </g>
            </g>
        </g>
    </g>
</svg>