<?xml version="1.0" encoding="UTF-8"?>
<svg width="26px" height="26px" viewBox="0 0 26 26" version="1.1" xmlns="http://www.w3.org/2000/svg" xmlns:xlink="http://www.w3.org/1999/xlink">
    <!-- Generator: Sketch 59 (86127) - https://sketch.com -->
    <title>编组 52备份 3</title>
    <desc>Created with Sketch.</desc>
    <g id="风" stroke="none" stroke-width="1" fill="none" fill-rule="evenodd">
        <g id="画板" transform="translate(-378.000000, -493.000000)">
            <g id="编组-52备份-3" transform="translate(378.000000, 493.000000)">
                <rect id="形状结合备份" fill="#1E3F5B" x="0" y="0" width="26" height="26" rx="2"></rect>
                <path d="M13.5621778,7.13414157 C13.714197,7.2219099 13.8404349,7.34814777 13.9282032,7.50016698 L19.9903811,18.000167 C20.2665234,18.4784596 20.1026483,19.09005 19.6243557,19.3661924 C19.4723364,19.4539607 19.2998923,19.500167 19.1243557,19.500167 L7,19.500167 C6.44771525,19.500167 6,19.0524517 6,18.500167 C6,18.3246303 6.04620626,18.1521862 6.1339746,18.000167 L12.1961524,7.50016698 C12.4722948,7.02187435 13.0838852,6.8579992 13.5621778,7.13414157 Z M13.1099834,16.9722824 C12.7492347,16.9722824 12.4567901,17.2716121 12.4567901,17.6408539 C12.4567901,18.0100957 12.7492347,18.3094253 13.1099834,18.3094253 C13.4707321,18.3094253 13.7631767,18.0100957 13.7631767,17.6408539 C13.7631767,17.2716121 13.4707321,16.9722824 13.1099834,16.9722824 Z M13.1871767,10.4751396 L12.9965016,10.4751396 C12.6783856,10.4751396 12.4205016,10.7330236 12.4205016,11.0511396 L12.4205016,11.0511396 L12.4205016,15.3962824 C12.4205016,15.7143984 12.6783856,15.9722824 12.9965016,15.9722824 L12.9965016,15.9722824 L13.1871767,15.9722824 C13.5052927,15.9722824 13.7631767,15.7143984 13.7631767,15.3962824 L13.7631767,15.3962824 L13.7631767,11.0511396 C13.7631767,10.7330236 13.5052927,10.4751396 13.1871767,10.4751396 L13.1871767,10.4751396 Z" id="形状结合" fill="#FFFFFF"></path>
            </g>
        </g>
    </g>
</svg>