<?xml version="1.0" encoding="UTF-8"?>
<svg width="60px" height="24px" viewBox="0 0 60 24" version="1.1" xmlns="http://www.w3.org/2000/svg" xmlns:xlink="http://www.w3.org/1999/xlink">
    <!-- Generator: Sketch 59 (86127) - https://sketch.com -->
    <title>国1-6</title>
    <desc>Created with Sketch.</desc>
    <g id="风" stroke="none" stroke-width="1" fill="none" fill-rule="evenodd">
        <g id="画板" transform="translate(-350.000000, -57.000000)">
            <g id="国1-6" transform="translate(350.000000, 57.000000)">
                <path d="M58.4,0 C59.2836556,0 60,0.7163444 60,1.6 L60,22.4 C60,23.2836556 59.2836556,24 58.4,24 L1.6,24 C0.7163444,24 0,23.2836556 0,22.4 L0,1.6 C0,0.7163444 0.7163444,0 1.6,0 L58.4,0 Z M58.4,1 L1.6,1 C1.26862915,1 1,1.26862915 1,1.6 L1,22.4 C1,22.7313708 1.26862915,23 1.6,23 L58.4,23 C58.7313708,23 59,22.7313708 59,22.4 L59,1.6 C59,1.26862915 58.7313708,1 58.4,1 Z" id="矩形备份-43" fill="#8E1C10" fill-rule="nonzero"></path>
                <path d="M1.6,0 L24,0 L24,0 L24,24 L1.6,24 C0.7163444,24 3.40259382e-15,23.2836556 0,22.4 L0,1.6 C1.13828005e-16,0.7163444 0.7163444,-2.8176431e-16 1.6,0 Z" id="形状结合备份-2" fill="#8E1C10"></path>
                <polygon id="星形备份" fill="#FFFFFF" points="12.0490639 16.3907768 7.05288929 19.0174213 8.00707374 13.4540991 3.96508354 9.51413239 9.55097661 8.70245462 12.0490639 3.64077684 14.5471513 8.70245462 20.1330443 9.51413239 16.0910541 13.4540991 17.0452386 19.0174213"></polygon>
            </g>
        </g>
    </g>
</svg>