<?xml version="1.0" encoding="UTF-8"?>
<svg width="60px" height="24px" viewBox="0 0 60 24" version="1.1" xmlns="http://www.w3.org/2000/svg" xmlns:xlink="http://www.w3.org/1999/xlink">
    <!-- Generator: Sketch 59 (86127) - https://sketch.com -->
    <title>省1-2</title>
    <desc>Created with Sketch.</desc>
    <g id="风" stroke="none" stroke-width="1" fill="none" fill-rule="evenodd">
        <g id="画板" transform="translate(-85.000000, -88.000000)">
            <g id="省1-2" transform="translate(85.000000, 88.000000)">
                <path d="M58,0 C59.1045695,0 60,0.8954305 60,2 L60,22 C60,23.1045695 59.1045695,24 58,24 L2,24 C0.8954305,24 0,23.1045695 0,22 L0,2 C0,0.8954305 0.8954305,0 2,0 L58,0 Z M58,1 L2,1 C1.44771525,1 1,1.44771525 1,2 L1,22 C1,22.5522847 1.44771525,23 2,23 L58,23 C58.5522847,23 59,22.5522847 59,22 L59,2 C59,1.44771525 58.5522847,1 58,1 Z" id="矩形备份-43" fill="#F19D38" fill-rule="nonzero"></path>
                <path d="M2,0 L24,0 L24,0 L24,24 L2,24 C0.8954305,24 1.3527075e-16,23.1045695 0,22 L0,2 C-1.3527075e-16,0.8954305 0.8954305,2.02906125e-16 2,0 Z" id="形状结合" fill="#F19D38"></path>
                <polygon id="多边形" fill="#FFFFFF" points="11.660254 5 19.320508 18.2679491 4 18.2679491"></polygon>
            </g>
        </g>
    </g>
</svg>