<?xml version="1.0" encoding="UTF-8"?>
<svg width="24px" height="24px" viewBox="0 0 24 24" version="1.1" xmlns="http://www.w3.org/2000/svg" xmlns:xlink="http://www.w3.org/1999/xlink">
    <!-- Generator: Sketch 59 (86127) - https://sketch.com -->
    <title>钢铁1</title>
    <desc>Created with Sketch.</desc>
    <g id="页面-1" stroke="none" stroke-width="1" fill="none" fill-rule="evenodd">
        <g id="大气-圆形icon" transform="translate(-225.000000, -326.000000)">
            <g id="钢铁1" transform="translate(225.000000, 326.000000)">
                <g id="编组-7">
                    <g id="编组-52备份-2">
                        <circle id="椭圆形" stroke="#081E31" fill="#46C96F" cx="12" cy="12" r="11.5"></circle>
                        <path d="M17.2883372,8.07046267 C17.4885305,8.07046267 17.6508193,7.90628582 17.6508193,7.70376341 L17.6508193,6.79239351 C17.6508193,6.5898711 17.4885305,6.42569425 17.2883372,6.42569425 L7.01330134,6.42569425 C6.81310802,6.42569425 6.65081927,6.5898711 6.65081927,6.79239351 L6.65081927,7.70376341 C6.65081927,7.90628582 6.81310802,8.07046267 7.01330134,8.07046267 L9.77305773,8.07046267 C10.5538117,8.07046267 11.1867378,8.71075239 11.1867378,9.50058979 L11.1867378,14.3507987 C11.1867378,14.730092 11.0377969,15.0938504 10.7726805,15.3620513 C10.5075641,15.6302521 10.147989,15.7809258 9.77305773,15.7809258 L7.01330134,15.7809258 C6.81310802,15.7809258 6.65081927,15.9451027 6.65081927,16.1476251 L6.65081927,17.058995 C6.65081927,17.2615174 6.81310802,17.4256942 7.01330134,17.4256942 L17.2883372,17.4256942 C17.4885305,17.4256942 17.6508193,17.2615174 17.6508193,17.058995 L17.6508193,16.1472584 C17.6508193,15.944736 17.4885305,15.7805591 17.2883372,15.7805591 L14.5285808,15.7805591 C13.7478269,15.7805591 13.1149007,15.1402694 13.1149007,14.350432 L13.1149007,9.50022309 C13.1149007,8.71038569 13.7478269,8.07009597 14.5285808,8.07009597 L17.2883372,8.07046267 Z" id="路径" fill="#FFFFFF" fill-rule="nonzero"></path>
                    </g>
                </g>
            </g>
        </g>
    </g>
</svg>