<?xml version="1.0" encoding="UTF-8"?>
<svg width="14px" height="14px" viewBox="0 0 14 14" version="1.1" xmlns="http://www.w3.org/2000/svg" xmlns:xlink="http://www.w3.org/1999/xlink">
    <!-- Generator: Sketch 59 (86127) - https://sketch.com -->
    <title>钢铁</title>
    <desc>Created with Sketch.</desc>
    <g id="风" stroke="none" stroke-width="1" fill="none" fill-rule="evenodd">
        <g id="画板" transform="translate(-448.000000, -656.000000)" fill="#D7E9FF" fill-rule="nonzero">
            <path d="M461.538659,658.093342 C461.793451,658.093342 462,657.884389 462,657.626633 L462,656.466708 C462,656.208952 461.793451,656 461.538659,656 L448.461341,656 C448.206549,656 448,656.208952 448,656.466708 L448,657.626633 C448,657.884389 448.206549,658.093342 448.461341,658.093342 L451.973758,658.093342 C452.967445,658.093342 453.772987,658.908256 453.772987,659.913503 L453.772987,666.086497 C453.772987,666.569233 453.583426,667.032199 453.246005,667.373545 C452.908584,667.714892 452.450943,667.906658 451.973758,667.906658 L448.461341,667.906658 C448.206549,667.906658 448,668.115611 448,668.373367 L448,669.533292 C448,669.791048 448.206549,670 448.461341,670 L461.538659,670 C461.793451,670 462,669.791048 462,669.533292 L462,668.3729 C462,668.115144 461.793451,667.906192 461.538659,667.906192 L458.026242,667.906192 C457.032555,667.906192 456.227013,667.091277 456.227013,666.08603 L456.227013,659.913037 C456.227013,658.907789 457.032555,658.092875 458.026242,658.092875 L461.538659,658.093342 Z" id="钢铁"></path>
        </g>
    </g>
</svg>