<?xml version="1.0" encoding="UTF-8"?>
<svg width="24px" height="24px" viewBox="0 0 24 24" version="1.1" xmlns="http://www.w3.org/2000/svg" xmlns:xlink="http://www.w3.org/1999/xlink">
    <!-- Generator: Sketch 59 (86127) - https://sketch.com -->
    <title>工地2</title>
    <desc>Created with Sketch.</desc>
    <g id="页面-1" stroke="none" stroke-width="1" fill="none" fill-rule="evenodd">
        <g id="大气-圆形icon" transform="translate(-264.000000, -392.000000)">
            <g id="工地2" transform="translate(264.000000, 392.000000)">
                <circle id="椭圆形备份" stroke="#081E31" fill="#EA3522" cx="12" cy="12" r="11.5"></circle>
                <path d="M18.5625,13.3636364 L18.538,13.3636364 C18.5480625,13.2278182 18.5625,13.0928182 18.5625,12.9545455 C18.5625,10.6624091 17.215875,8.66727273 15.224375,7.61345455 L14.6368125,10.9090909 L13.75,10.9090909 L14.45525,6.95277273 C14.5440625,6.45409091 14.1328125,6 13.5920625,6 L10.8454375,6 C10.3046875,6 9.8934375,6.45409091 9.98225,6.95277273 L10.6875,10.9090909 L9.80025,10.9090909 L9.1785625,7.42077273 C6.9683125,8.40790909 5.4375,10.5114545 5.4375,12.9545455 C5.4375,13.0928182 5.4519375,13.2278182 5.462,13.3636364 L5.4375,13.3636364 C5.196,13.3636364 5,13.5469091 5,13.7727273 L5,14.5909091 C5,14.8167273 5.196,15 5.4375,15 L18.5625,15 C18.804,15 19,14.8167273 19,14.5909091 L19,13.7727273 C19,13.5469091 18.804,13.3636364 18.5625,13.3636364 Z M12,14.1818182 C11.2750625,14.1818182 10.6875,13.6324091 10.6875,12.9545455 C10.6875,12.2766818 11.2750625,11.7272727 12,11.7272727 C12.7249375,11.7272727 13.3125,12.2766818 13.3125,12.9545455 C13.3125,13.6324091 12.7249375,14.1818182 12,14.1818182 Z" id="形状" fill="#FFFFFF" fill-rule="nonzero"></path>
            </g>
        </g>
    </g>
</svg>