<?xml version="1.0" encoding="UTF-8"?>
<svg width="14px" height="9px" viewBox="0 0 14 9" version="1.1" xmlns="http://www.w3.org/2000/svg" xmlns:xlink="http://www.w3.org/1999/xlink">
    <!-- Generator: Sketch 59 (86127) - https://sketch.com -->
    <title>工地</title>
    <desc>Created with Sketch.</desc>
    <g id="风" stroke="none" stroke-width="1" fill="none" fill-rule="evenodd">
        <g id="画板" transform="translate(-448.000000, -716.000000)" fill="#D7E9FF" fill-rule="nonzero">
            <path d="M461.5625,723.363636 L461.538,723.363636 C461.548063,723.227818 461.5625,723.092818 461.5625,722.954545 C461.5625,720.662409 460.215875,718.667273 458.224375,717.613455 L457.636813,720.909091 L456.75,720.909091 L457.45525,716.952773 C457.544062,716.454091 457.132812,716 456.592062,716 L453.845438,716 C453.304688,716 452.893438,716.454091 452.98225,716.952773 L453.6875,720.909091 L452.80025,720.909091 L452.178562,717.420773 C449.968313,718.407909 448.4375,720.511455 448.4375,722.954545 C448.4375,723.092818 448.451937,723.227818 448.462,723.363636 L448.4375,723.363636 C448.196,723.363636 448,723.546909 448,723.772727 L448,724.590909 C448,724.816727 448.196,725 448.4375,725 L461.5625,725 C461.804,725 462,724.816727 462,724.590909 L462,723.772727 C462,723.546909 461.804,723.363636 461.5625,723.363636 Z M455,724.181818 C454.275062,724.181818 453.6875,723.632409 453.6875,722.954545 C453.6875,722.276682 454.275062,721.727273 455,721.727273 C455.724938,721.727273 456.3125,722.276682 456.3125,722.954545 C456.3125,723.632409 455.724938,724.181818 455,724.181818 Z" id="工地"></path>
        </g>
    </g>
</svg>