<?xml version="1.0" encoding="UTF-8"?>
<svg width="14px" height="14px" viewBox="0 0 14 14" version="1.1" xmlns="http://www.w3.org/2000/svg" xmlns:xlink="http://www.w3.org/1999/xlink">
    <!-- Generator: Sketch 59 (86127) - https://sketch.com -->
    <title>煤炭</title>
    <desc>Created with Sketch.</desc>
    <g id="风" stroke="none" stroke-width="1" fill="none" fill-rule="evenodd">
        <g id="画板" transform="translate(-448.000000, -684.000000)" fill="#D7E9FF" fill-rule="nonzero">
            <path d="M457,696 C457.552285,696 458,696.447715 458,697 C458,697.552285 457.552285,698 457,698 C456.447715,698 456,697.552285 456,697 C456,696.447715 456.447715,696 457,696 Z M453,696 C453.552285,696 454,696.447715 454,697 C454,697.552285 453.552285,698 453,698 C452.447715,698 452,697.552285 452,697 C452,696.447715 452.447715,696 453,696 Z M454.982438,684 C457.046427,684 458.835217,685.30713 459.562527,687.137112 C459.621498,687.277879 459.739441,687.378428 459.896697,687.378428 L459.896697,687.378428 L461.488917,687.378428 C461.823087,687.378428 462.058971,687.720293 461.941029,688.042048 L461.941029,688.042048 L461.449603,689.349177 C461.429946,689.429616 461.488917,689.489945 461.547888,689.489945 L461.547888,689.489945 L461.783773,689.489945 C461.882058,689.489945 461.960686,689.590494 462,689.691042 L462,689.691042 L462,690.636197 C462,690.736746 461.921372,690.817185 461.823087,690.817185 L461.823087,690.817185 L461.017148,690.817185 C460.977834,690.817185 460.93852,690.837294 460.918863,690.877514 L460.918863,690.877514 L459.523213,694.678245 C459.444585,694.879342 459.267672,695 459.071101,695 L459.071101,695 L450.933088,695 C450.736518,695 450.559604,694.859232 450.480976,694.678245 L450.480976,694.678245 L449.085326,690.877514 C449.065669,690.837294 449.026355,690.817185 448.987041,690.817185 L448.987041,690.817185 L448.181103,690.817185 C448.082818,690.817185 448.004189,690.736746 448.004189,690.636197 L448.004189,690.636197 L448.004189,689.691042 C448.004189,689.590494 448.082818,689.510055 448.181103,689.510055 L448.181103,689.510055 L448.416987,689.510055 C448.495615,689.510055 448.534929,689.429616 448.515272,689.369287 L448.515272,689.369287 L448.023846,688.062157 C447.925561,687.740402 448.141789,687.398537 448.475958,687.398537 L448.475958,687.398537 L450.068178,687.398537 C450.225435,687.398537 450.343377,687.297989 450.402348,687.157221 C451.129658,685.30713 452.918449,684 454.982438,684 Z" id="煤炭"></path>
        </g>
    </g>
</svg>