<?xml version="1.0" encoding="UTF-8"?>
<svg width="24px" height="24px" viewBox="0 0 24 24" version="1.1" xmlns="http://www.w3.org/2000/svg" xmlns:xlink="http://www.w3.org/1999/xlink">
    <!-- Generator: Sketch 59 (86127) - https://sketch.com -->
    <title>煤炭2</title>
    <desc>Created with Sketch.</desc>
    <g id="页面-1" stroke="none" stroke-width="1" fill="none" fill-rule="evenodd">
        <g id="大气-圆形icon" transform="translate(-264.000000, -362.000000)">
            <g id="煤炭2" transform="translate(264.000000, 362.000000)">
                <circle id="椭圆形" stroke="#081E31" fill="#EA3522" cx="12" cy="12" r="11.5"></circle>
                <path d="M14,17 C14.5522847,17 15,17.4477153 15,18 C15,18.5522847 14.5522847,19 14,19 C13.4477153,19 13,18.5522847 13,18 C13,17.4477153 13.4477153,17 14,17 Z M10,17 C10.5522847,17 11,17.4477153 11,18 C11,18.5522847 10.5522847,19 10,19 C9.44771525,19 9,18.5522847 9,18 C9,17.4477153 9.44771525,17 10,17 Z M11.9824377,5 C14.0464266,5 15.835217,6.3071298 16.5625274,8.13711152 C16.6214985,8.27787934 16.7394407,8.37842779 16.896697,8.37842779 L16.896697,8.37842779 L18.488917,8.37842779 C18.8230867,8.37842779 19.0589711,8.7202925 18.9410289,9.04204753 L18.9410289,9.04204753 L18.449603,10.3491773 C18.4299459,10.4296161 18.488917,10.4899452 18.5478881,10.4899452 L18.5478881,10.4899452 L18.7837726,10.4899452 C18.8820578,10.4899452 18.9606859,10.5904936 19,10.691042 L19,10.691042 L19,11.6361974 C19,11.7367459 18.9213719,11.8171846 18.8230867,11.8171846 L18.8230867,11.8171846 L18.0171481,11.8171846 C17.9778341,11.8171846 17.93852,11.8372943 17.9188629,11.8775137 L17.9188629,11.8775137 L16.5232133,15.678245 C16.4445851,15.8793419 16.2676718,16 16.0711014,16 L16.0711014,16 L7.93308796,16 C7.73651759,16 7.55960425,15.8592322 7.4809761,15.678245 L7.4809761,15.678245 L6.08532645,11.8775137 C6.06566941,11.8372943 6.02635534,11.8171846 5.98704126,11.8171846 L5.98704126,11.8171846 L5.18110273,11.8171846 C5.08281754,11.8171846 5.00418939,11.7367459 5.00418939,11.6361974 L5.00418939,11.6361974 L5.00418939,10.691042 C5.00418939,10.5904936 5.08281754,10.5100548 5.18110273,10.5100548 L5.18110273,10.5100548 L5.41698718,10.5100548 C5.49561533,10.5100548 5.5349294,10.4296161 5.51527237,10.369287 L5.51527237,10.369287 L5.02384643,9.06215722 C4.92556124,8.74040219 5.14178866,8.39853748 5.47595829,8.39853748 L5.47595829,8.39853748 L7.06817832,8.39853748 C7.22543462,8.39853748 7.34337684,8.29798903 7.40234795,8.15722121 C8.12965834,6.3071298 9.91844874,5 11.9824377,5 Z" id="形状结合备份-5" fill="#FFFFFF" fill-rule="nonzero"></path>
            </g>
        </g>
    </g>
</svg>