<?xml version="1.0" encoding="UTF-8"?>
<svg width="24px" height="24px" viewBox="0 0 24 24" version="1.1" xmlns="http://www.w3.org/2000/svg" xmlns:xlink="http://www.w3.org/1999/xlink">
    <!-- Generator: Sketch 59 (86127) - https://sketch.com -->
    <title>铸造1</title>
    <desc>Created with Sketch.</desc>
    <g id="页面-1" stroke="none" stroke-width="1" fill="none" fill-rule="evenodd">
        <g id="大气-圆形icon" transform="translate(-225.000000, -467.000000)">
            <g id="铸造1" transform="translate(225.000000, 467.000000)">
                <circle id="椭圆形备份-3" stroke="#081E31" fill="#46C96F" cx="12" cy="12" r="11.5"></circle>
                <path d="M18.1891378,11.7984761 C18.2482261,11.7968002 18.3054425,11.8205914 18.3477854,11.8644436 C18.3901282,11.9082957 18.4139806,11.9684847 18.4139806,12.0313334 C18.4139806,13.6178676 17.5919905,15.0491637 16.2940345,16.0411357 L16.2940345,16.0411357 L16.8444613,17.0051648 C16.9564394,17.1994146 16.9881306,17.4341631 16.9320623,17.6540604 C16.8745487,17.8817947 16.7314659,18.0743487 16.5363975,18.1865274 C16.4096765,18.2600709 16.2675812,18.2985093 16.1232124,18.2982989 C15.8264605,18.3028658 15.5492658,18.1413535 15.3932034,17.8729462 L15.3932034,17.8729462 L14.8252564,16.8794219 C12.9549107,17.6432658 10.8847307,17.6432658 9.0143849,16.8794219 L9.0143849,16.8794219 L8.44643791,17.8729462 C8.29037551,18.1413535 8.01318086,18.3028658 7.71642893,18.2982989 C7.57206013,18.2985093 7.42996483,18.2600709 7.30324385,18.1865274 C7.10817542,18.0743487 6.96509261,17.8817947 6.90757898,17.6540604 C6.85151077,17.4341631 6.88320188,17.1994146 6.99518005,17.0051648 L6.99518005,17.0051648 L7.54560683,16.0411357 C6.23597071,15.0491637 5.4139806,13.6178676 5.4139806,12.0313334 C5.4139806,11.9027299 5.51203144,11.7984761 5.63298329,11.7984761 L5.63298329,11.7984761 Z M12.6321233,5.30160001 C12.6910922,5.29142963 12.7517382,5.30569168 12.7994789,5.34095678 C12.848555,5.37552766 12.8809589,5.42821186 12.8891337,5.4867226 L12.8891337,5.4867226 L13.1610865,7.17031784 L17.8709511,6.44148873 C17.9930409,6.42316147 18.1073164,6.5046508 18.1264672,6.62369601 L18.1264672,6.62369601 L18.410374,8.37288586 C18.4209513,8.42932544 18.4080462,8.48755041 18.3745121,8.53468592 C18.3386053,8.58206023 18.2848349,8.61353253 18.2250875,8.62214542 L18.2250875,8.62214542 L13.5167172,9.35097452 L13.7916585,11.0360274 C13.8010949,11.0932882 13.7866632,11.1518523 13.7515787,11.1986727 C13.7164941,11.2454931 13.6636712,11.2766805 13.6048777,11.285287 L13.6048777,11.285287 L10.2906393,11.7983932 L10.2488004,11.7983932 C10.2016444,11.7987058 10.155601,11.7844144 10.1173067,11.7575682 C10.0687433,11.7225407 10.036481,11.6700868 10.0276519,11.6118024 L10.0276519,11.6118024 L9.1311041,6.0727012 C9.1216477,6.01527216 9.13603783,5.95653438 9.17109101,5.90948224 C9.20614419,5.86243011 9.25897107,5.83094202 9.3178849,5.82198399 L9.3178849,5.82198399 Z" id="形状结合" fill="#FFFFFF" fill-rule="nonzero"></path>
            </g>
        </g>
    </g>
</svg>