<?xml version="1.0" encoding="UTF-8"?>
<svg width="14px" height="14px" viewBox="0 0 14 14" version="1.1" xmlns="http://www.w3.org/2000/svg" xmlns:xlink="http://www.w3.org/1999/xlink">
    <!-- Generator: Sketch 59 (86127) - https://sketch.com -->
    <title>铸造</title>
    <desc>Created with Sketch.</desc>
    <g id="风" stroke="none" stroke-width="1" fill="none" fill-rule="evenodd">
        <g id="画板" transform="translate(-448.000000, -772.000000)" fill="#D7E9FF" fill-rule="nonzero">
            <path d="M453.206729,779 C453.155946,779.000337 453.10636,778.984946 453.06512,778.956035 C453.012821,778.918313 452.978077,778.861824 452.968569,778.799056 L452.968569,778.799056 L452.003056,772.83387 C451.992872,772.772023 452.008369,772.708767 452.046119,772.658096 C452.083868,772.607424 452.140759,772.573514 452.204205,772.563867 L452.204205,772.563867 L455.773384,772.003453 C455.836889,771.992501 455.902201,772.00786 455.953614,772.045838 C456.006465,772.083068 456.041361,772.139805 456.050165,772.202816 L456.050165,772.202816 L456.343037,774.015919 L461.415199,773.231026 C461.54668,773.211289 461.669746,773.299047 461.69037,773.427249 L461.69037,773.427249 L461.996116,775.310992 C462.007507,775.371773 461.993609,775.434477 461.957495,775.485238 C461.918827,775.536257 461.86092,775.57015 461.796577,775.579425 L461.796577,775.579425 L456.726024,776.364318 L457.022115,778.178991 C457.032277,778.240656 457.016735,778.303725 456.978952,778.354147 C456.941168,778.404569 456.884282,778.438156 456.820966,778.447424 L456.820966,778.447424 L453.251786,779 L461.757862,779.000089 C461.821495,778.998284 461.883113,779.023906 461.928713,779.071131 C461.974313,779.118357 462,779.183175 462,779.250859 C462,780.959434 461.11478,782.50083 459.716981,783.569107 L459.716981,783.569107 L460.309748,784.607292 C460.43034,784.816485 460.464469,785.069291 460.404088,785.306103 C460.34215,785.551355 460.188061,785.758721 459.977987,785.879529 C459.841519,785.95873 459.688493,786.000125 459.533019,785.999898 C459.21344,786.004817 458.914923,785.83088 458.746855,785.541826 L458.746855,785.541826 L458.13522,784.471877 C456.121002,785.294478 453.891577,785.294478 451.877358,784.471877 L451.877358,784.471877 L451.265723,785.541826 C451.097656,785.83088 450.799139,786.004817 450.47956,785.999898 C450.324086,786.000125 450.17106,785.95873 450.034591,785.879529 C449.824518,785.758721 449.670428,785.551355 449.608491,785.306103 C449.548109,785.069291 449.582238,784.816485 449.70283,784.607292 L449.70283,784.607292 L450.295597,783.569107 C448.88522,782.50083 448,780.959434 448,779.250859 C448,779.112363 448.105593,779.000089 448.235849,779.000089 L448.235849,779.000089 Z" id="铸造"></path>
        </g>
    </g>
</svg>