<?xml version="1.0" encoding="UTF-8"?>
<svg width="60px" height="24px" viewBox="0 0 60 24" version="1.1" xmlns="http://www.w3.org/2000/svg" xmlns:xlink="http://www.w3.org/1999/xlink">
    <!-- Generator: Sketch 59 (86127) - https://sketch.com -->
    <title>扬1-6</title>
    <desc>Created with Sketch.</desc>
    <g id="风" stroke="none" stroke-width="1" fill="none" fill-rule="evenodd">
        <g id="画板" transform="translate(-350.000000, -217.000000)">
            <g id="扬1-6" transform="translate(350.000000, 217.000000)">
                <path d="M58.4,0 C59.2836556,0 60,0.7163444 60,1.6 L60,22.4 C60,23.2836556 59.2836556,24 58.4,24 L1.6,24 C0.7163444,24 0,23.2836556 0,22.4 L0,1.6 C0,0.7163444 0.7163444,0 1.6,0 L58.4,0 Z M58.4,1 L1.6,1 C1.26862915,1 1,1.26862915 1,1.6 L1,22.4 C1,22.7313708 1.26862915,23 1.6,23 L58.4,23 C58.7313708,23 59,22.7313708 59,22.4 L59,1.6 C59,1.26862915 58.7313708,1 58.4,1 Z" id="矩形备份-57" fill="#8E1C10" fill-rule="nonzero"></path>
                <g id="编组-7备份-5">
                    <g id="编组-52备份-2" fill="#8E1C10">
                        <path d="M1.6,0 L24,0 L24,0 L24,24 L1.6,24 C0.7163444,24 3.40259382e-15,23.2836556 0,22.4 L0,1.6 C1.13828005e-16,0.7163444 0.7163444,-2.8176431e-16 1.6,0 Z" id="形状结合备份"></path>
                    </g>
                    <g id="编组-51备份" transform="translate(3.692308, 3.692308)" fill="#FFFFFF" fill-rule="nonzero">
                        <path d="M8.30769231,0 C12.8959041,0 16.6153846,3.71948054 16.6153846,8.30769231 C16.6153846,12.8959041 12.8959041,16.6153846 8.30769231,16.6153846 C3.71948054,16.6153846 0,12.8959041 0,8.30769231 C0,3.71948054 3.71948054,0 8.30769231,0 Z M8.30769231,1.10769231 C4.33124211,1.10769231 1.10769231,4.33124211 1.10769231,8.30769231 C1.10769231,12.2841425 4.33124211,15.5076923 8.30769231,15.5076923 C12.2841425,15.5076923 15.5076923,12.2841425 15.5076923,8.30769231 C15.5076923,4.33124211 12.2841425,1.10769231 8.30769231,1.10769231 Z M8.30769231,3.32307692 C11.0606194,3.32307692 13.2923077,5.55476525 13.2923077,8.30769231 C13.2923077,11.0606194 11.0606194,13.2923077 8.30769231,13.2923077 C5.55476525,13.2923077 3.32307692,11.0606194 3.32307692,8.30769231 C3.32307692,5.55476525 5.55476525,3.32307692 8.30769231,3.32307692 Z M8.30769231,4.43076923 C6.16652682,4.43076923 4.43076923,6.16652682 4.43076923,8.30769231 C4.43076923,10.4488578 6.16652682,12.1846154 8.30769231,12.1846154 C10.4488578,12.1846154 12.1846154,10.4488578 12.1846154,8.30769231 C12.1846154,6.16652682 10.4488578,4.43076923 8.30769231,4.43076923 Z M8.30769231,7.2 C8.91945388,7.2 9.41538462,7.69593074 9.41538462,8.30769231 C9.41538462,8.91945388 8.91945388,9.41538462 8.30769231,9.41538462 C7.69593074,9.41538462 7.2,8.91945388 7.2,8.30769231 C7.2,7.69593074 7.69593074,7.2 8.30769231,7.2 Z" id="形状结合"></path>
                    </g>
                </g>
            </g>
        </g>
    </g>
</svg>