<?xml version="1.0" encoding="UTF-8"?>
<svg width="60px" height="24px" viewBox="0 0 60 24" version="1.1" xmlns="http://www.w3.org/2000/svg" xmlns:xlink="http://www.w3.org/1999/xlink">
    <!-- Generator: Sketch 59 (86127) - https://sketch.com -->
    <title>污1-1</title>
    <desc>Created with Sketch.</desc>
    <g id="风" stroke="none" stroke-width="1" fill="none" fill-rule="evenodd">
        <g id="画板" transform="translate(-18.000000, -189.000000)">
            <g id="污1-1" transform="translate(18.000000, 189.000000)">
                <path d="M58.4,0 C59.2836556,0 60,0.7163444 60,1.6 L60,22.4 C60,23.2836556 59.2836556,24 58.4,24 L1.6,24 C0.7163444,24 0,23.2836556 0,22.4 L0,1.6 C0,0.7163444 0.7163444,0 1.6,0 L58.4,0 Z M58.4,1 L1.6,1 C1.26862915,1 1,1.26862915 1,1.6 L1,22.4 C1,22.7313708 1.26862915,23 1.6,23 L58.4,23 C58.7313708,23 59,22.7313708 59,22.4 L59,1.6 C59,1.26862915 58.7313708,1 58.4,1 Z" id="矩形备份-44" fill="#46C96F" fill-rule="nonzero"></path>
                <g id="编组-6">
                    <g id="编组-52备份-5" fill="#46C96F">
                        <path d="M1.6,0 L24,0 L24,0 L24,24 L1.6,24 C0.7163444,24 3.40259382e-15,23.2836556 0,22.4 L0,1.6 C1.13828005e-16,0.7163444 0.7163444,-2.8176431e-16 1.6,0 Z" id="形状结合备份"></path>
                    </g>
                    <path d="M12,4.61538462 C16.0784105,4.61538462 19.3846154,7.92158954 19.3846154,12 C19.3846154,16.0784105 16.0784105,19.3846154 12,19.3846154 C7.92158954,19.3846154 4.61538462,16.0784105 4.61538462,12 C4.61538462,7.92158954 7.92158954,4.61538462 12,4.61538462 Z M14.2199838,11.5384615 L9.86781112,11.5384615 L8.54747074,17.4628073 C9.54621287,18.0953424 10.7303416,18.4615385 12,18.4615385 C13.2811044,18.4615385 14.4751301,18.0887101 15.479495,17.4456355 L14.2199838,11.5384615 Z M12.4653082,9.69230769 L10.2606964,9.69230769 C10.0057957,9.69230769 9.79915792,9.91616532 9.79915792,10.1923077 C9.79915792,10.4684501 10.0057957,10.6923077 10.2606964,10.6923077 L12.4653082,10.6923077 C12.7202088,10.6923077 12.9268466,10.4684501 12.9268466,10.1923077 C12.9268466,9.91616532 12.7202088,9.69230769 12.4653082,9.69230769 Z M13.9592168,9.69230769 L13.8461538,9.69230769 C13.5912532,9.69230769 13.3846154,9.91616532 13.3846154,10.1923077 C13.3846154,10.4684501 13.5912532,10.6923077 13.8461538,10.6923077 L13.9592168,10.6923077 C14.2141175,10.6923077 14.4207553,10.4684501 14.4207553,10.1923077 C14.4207553,9.91616532 14.2141175,9.69230769 13.9592168,9.69230769 Z M10.6191543,7.84615385 L9.23076923,7.84615385 C8.97586858,7.84615385 8.76923077,8.07001147 8.76923077,8.34615385 C8.76923077,8.62229622 8.97586858,8.84615385 9.23076923,8.84615385 L10.6191543,8.84615385 C10.874055,8.84615385 11.0806928,8.62229622 11.0806928,8.34615385 C11.0806928,8.07001147 10.874055,7.84615385 10.6191543,7.84615385 Z M14.7403633,7.84615385 L12,7.84615385 C11.7450993,7.84615385 11.5384615,8.07001147 11.5384615,8.34615385 C11.5384615,8.62229622 11.7450993,8.84615385 12,8.84615385 L14.7403633,8.84615385 C14.995264,8.84615385 15.2019018,8.62229622 15.2019018,8.34615385 C15.2019018,8.07001147 14.995264,7.84615385 14.7403633,7.84615385 Z" id="形状结合备份-3" fill="#FFFFFF"></path>
                </g>
            </g>
        </g>
    </g>
</svg>