<?xml version="1.0" encoding="UTF-8"?>
<svg width="60px" height="24px" viewBox="0 0 60 24" version="1.1" xmlns="http://www.w3.org/2000/svg" xmlns:xlink="http://www.w3.org/1999/xlink">
    <!-- Generator: Sketch 59 (86127) - https://sketch.com -->
    <title>扬2-1</title>
    <desc>Created with Sketch.</desc>
    <g id="风" stroke="none" stroke-width="1" fill="none" fill-rule="evenodd">
        <g id="画板" transform="translate(-19.000000, -419.000000)">
            <g id="扬2-1" transform="translate(19.000000, 419.000000)">
                <rect id="矩形备份-43" fill="#46C96F" x="0" y="0" width="60" height="24" rx="1.6"></rect>
                <g id="编组-52备份-4" fill="#1E3F5B">
                    <path d="M24,0 L24,24 L1.6,24 C0.7163444,24 3.40259382e-15,23.2836556 0,22.4 L0,1.6 C1.13828005e-16,0.7163444 0.7163444,-2.8176431e-16 1.6,0 L24,0 Z M12,4.61538462 C7.92158954,4.61538462 4.61538462,7.92158954 4.61538462,12 C4.61538462,16.0784105 7.92158954,19.3846154 12,19.3846154 C16.0784105,19.3846154 19.3846154,16.0784105 19.3846154,12 C19.3846154,7.92158954 16.0784105,4.61538462 12,4.61538462 Z M14.2199838,11.5384615 L15.479495,17.4456355 C14.4751301,18.0887101 13.2811044,18.4615385 12,18.4615385 C10.7303416,18.4615385 9.54621287,18.0953424 8.54747074,17.4628073 L8.54747074,17.4628073 L9.86781112,11.5384615 L14.2199838,11.5384615 Z M12.4653082,9.69230769 C12.7202088,9.69230769 12.9268466,9.91616532 12.9268466,10.1923077 C12.9268466,10.4684501 12.7202088,10.6923077 12.4653082,10.6923077 L12.4653082,10.6923077 L10.2606964,10.6923077 C10.0057957,10.6923077 9.79915792,10.4684501 9.79915792,10.1923077 C9.79915792,9.91616532 10.0057957,9.69230769 10.2606964,9.69230769 L10.2606964,9.69230769 Z M13.9592168,9.69230769 C14.2141175,9.69230769 14.4207553,9.91616532 14.4207553,10.1923077 C14.4207553,10.4684501 14.2141175,10.6923077 13.9592168,10.6923077 L13.9592168,10.6923077 L13.8461538,10.6923077 C13.5912532,10.6923077 13.3846154,10.4684501 13.3846154,10.1923077 C13.3846154,9.91616532 13.5912532,9.69230769 13.8461538,9.69230769 L13.8461538,9.69230769 Z M10.6191543,7.84615385 C10.874055,7.84615385 11.0806928,8.07001147 11.0806928,8.34615385 C11.0806928,8.62229622 10.874055,8.84615385 10.6191543,8.84615385 L10.6191543,8.84615385 L9.23076923,8.84615385 C8.97586858,8.84615385 8.76923077,8.62229622 8.76923077,8.34615385 C8.76923077,8.07001147 8.97586858,7.84615385 9.23076923,7.84615385 L9.23076923,7.84615385 Z M14.7403633,7.84615385 C14.995264,7.84615385 15.2019018,8.07001147 15.2019018,8.34615385 C15.2019018,8.62229622 14.995264,8.84615385 14.7403633,8.84615385 L14.7403633,8.84615385 L12,8.84615385 C11.7450993,8.84615385 11.5384615,8.62229622 11.5384615,8.34615385 C11.5384615,8.07001147 11.7450993,7.84615385 12,7.84615385 L12,7.84615385 Z" id="形状结合"></path>
                </g>
            </g>
        </g>
    </g>
</svg>