<?xml version="1.0" encoding="UTF-8"?>
<svg width="16px" height="16px" viewBox="0 0 16 16" version="1.1" xmlns="http://www.w3.org/2000/svg" xmlns:xlink="http://www.w3.org/1999/xlink">
    <!-- Generator: Sketch 59 (86127) - https://sketch.com -->
    <title>扬1-4</title>
    <desc>Created with Sketch.</desc>
    <g id="风" stroke="none" stroke-width="1" fill="none" fill-rule="evenodd">
        <g id="画板备份" transform="translate(-218.000000, -179.000000)" fill="#EA3522" fill-rule="nonzero">
            <g id="扬1-4" transform="translate(217.000000, 178.000000)">
                <g id="编组-7备份-3">
                    <g id="编组-51备份" transform="translate(0.692308, 0.692308)">
                        <path d="M8.30769231,0.923076923 C12.3861028,0.923076923 15.6923077,4.22928185 15.6923077,8.30769231 C15.6923077,12.3861028 12.3861028,15.6923077 8.30769231,15.6923077 C4.22928185,15.6923077 0.923076923,12.3861028 0.923076923,8.30769231 C0.923076923,4.22928185 4.22928185,0.923076923 8.30769231,0.923076923 Z M8.30769231,2.97435897 C5.36217364,2.97435897 2.97435897,5.36217364 2.97435897,8.30769231 C2.97435897,11.253211 5.36217364,13.6410256 8.30769231,13.6410256 C11.253211,13.6410256 13.6410256,11.253211 13.6410256,8.30769231 C13.6410256,5.36217364 11.253211,2.97435897 8.30769231,2.97435897 Z M8.30769231,3.86324786 C10.7622912,3.86324786 12.7521368,5.85309342 12.7521368,8.30769231 C12.7521368,10.7622912 10.7622912,12.7521368 8.30769231,12.7521368 C5.85309342,12.7521368 3.86324786,10.7622912 3.86324786,8.30769231 C3.86324786,5.85309342 5.85309342,3.86324786 8.30769231,3.86324786 Z M8.30769231,7.32307692 C7.76390425,7.32307692 7.32307692,7.76390425 7.32307692,8.30769231 C7.32307692,8.85148037 7.76390425,9.29230769 8.30769231,9.29230769 C8.85148037,9.29230769 9.29230769,8.85148037 9.29230769,8.30769231 C9.29230769,7.76390425 8.85148037,7.32307692 8.30769231,7.32307692 Z" id="形状结合"></path>
                    </g>
                </g>
            </g>
        </g>
    </g>
</svg>