<?xml version="1.0" encoding="UTF-8"?>
<svg width="15px" height="16px" viewBox="0 0 15 16" version="1.1" xmlns="http://www.w3.org/2000/svg" xmlns:xlink="http://www.w3.org/1999/xlink">
    <!-- Generator: Sketch 59 (86127) - https://sketch.com -->
    <title>扬1-5</title>
    <desc>Created with Sketch.</desc>
    <g id="风" stroke="none" stroke-width="1" fill="none" fill-rule="evenodd">
        <g id="画板备份" transform="translate(-285.000000, -179.000000)" fill="#8B2293" fill-rule="nonzero">
            <g id="扬1-5" transform="translate(284.000000, 178.000000)">
                <g id="编组-7备份-4">
                    <g id="编组-51备份" transform="translate(0.692308, 0.692308)">
                        <path d="M7.69230769,0.923076923 C11.7707182,0.923076923 15.0769231,4.22928185 15.0769231,8.30769231 C15.0769231,12.3861028 11.7707182,15.6923077 7.69230769,15.6923077 C3.61389723,15.6923077 0.307692308,12.3861028 0.307692308,8.30769231 C0.307692308,4.22928185 3.61389723,0.923076923 7.69230769,0.923076923 Z M7.69230769,2.97435897 C4.74678903,2.97435897 2.35897436,5.36217364 2.35897436,8.30769231 C2.35897436,11.253211 4.74678903,13.6410256 7.69230769,13.6410256 C10.6378264,13.6410256 13.025641,11.253211 13.025641,8.30769231 C13.025641,5.36217364 10.6378264,2.97435897 7.69230769,2.97435897 Z M7.69230769,3.86324786 C10.1469066,3.86324786 12.1367521,5.85309342 12.1367521,8.30769231 C12.1367521,10.7622912 10.1469066,12.7521368 7.69230769,12.7521368 C5.2377088,12.7521368 3.24786325,10.7622912 3.24786325,8.30769231 C3.24786325,5.85309342 5.2377088,3.86324786 7.69230769,3.86324786 Z M7.69230769,7.32307692 C7.14851963,7.32307692 6.70769231,7.76390425 6.70769231,8.30769231 C6.70769231,8.85148037 7.14851963,9.29230769 7.69230769,9.29230769 C8.23609575,9.29230769 8.67692308,8.85148037 8.67692308,8.30769231 C8.67692308,7.76390425 8.23609575,7.32307692 7.69230769,7.32307692 Z" id="形状结合"></path>
                    </g>
                </g>
            </g>
        </g>
    </g>
</svg>