<?xml version="1.0" encoding="UTF-8"?>
<svg width="16px" height="16px" viewBox="0 0 16 16" version="1.1" xmlns="http://www.w3.org/2000/svg" xmlns:xlink="http://www.w3.org/1999/xlink">
    <!-- Generator: Sketch 59 (86127) - https://sketch.com -->
    <title>扬1-1</title>
    <desc>Created with Sketch.</desc>
    <g id="风" stroke="none" stroke-width="1" fill="none" fill-rule="evenodd">
        <g id="画板备份" transform="translate(-20.000000, -179.000000)" fill="#46C96F" fill-rule="nonzero">
            <g id="扬1-1" transform="translate(20.000000, 179.000000)">
                <g id="编组-7">
                    <g id="编组-51备份" transform="translate(0.615385, 0.615385)">
                        <path d="M7.38461538,0 C11.4630258,0 14.7692308,3.30620492 14.7692308,7.38461538 C14.7692308,11.4630258 11.4630258,14.7692308 7.38461538,14.7692308 C3.30620492,14.7692308 0,11.4630258 0,7.38461538 C0,3.30620492 3.30620492,0 7.38461538,0 Z M7.38461538,2.05128205 C4.43909672,2.05128205 2.05128205,4.43909672 2.05128205,7.38461538 C2.05128205,10.3301341 4.43909672,12.7179487 7.38461538,12.7179487 C10.3301341,12.7179487 12.7179487,10.3301341 12.7179487,7.38461538 C12.7179487,4.43909672 10.3301341,2.05128205 7.38461538,2.05128205 Z M7.38461538,2.94017094 C9.83921427,2.94017094 11.8290598,4.9300165 11.8290598,7.38461538 C11.8290598,9.83921427 9.83921427,11.8290598 7.38461538,11.8290598 C4.9300165,11.8290598 2.94017094,9.83921427 2.94017094,7.38461538 C2.94017094,4.9300165 4.9300165,2.94017094 7.38461538,2.94017094 Z M7.38461538,6.4 C6.84082732,6.4 6.4,6.84082732 6.4,7.38461538 C6.4,7.92840345 6.84082732,8.36923077 7.38461538,8.36923077 C7.92840345,8.36923077 8.36923077,7.92840345 8.36923077,7.38461538 C8.36923077,6.84082732 7.92840345,6.4 7.38461538,6.4 Z" id="形状结合"></path>
                    </g>
                </g>
            </g>
        </g>
    </g>
</svg>