<?xml version="1.0" encoding="UTF-8"?>
<svg width="16px" height="16px" viewBox="0 0 16 16" version="1.1" xmlns="http://www.w3.org/2000/svg" xmlns:xlink="http://www.w3.org/1999/xlink">
    <!-- Generator: Sketch 59 (86127) - https://sketch.com -->
    <title>污1-2</title>
    <desc>Created with Sketch.</desc>
    <g id="风" stroke="none" stroke-width="1" fill="none" fill-rule="evenodd">
        <g id="画板备份" transform="translate(-87.000000, -151.000000)" fill="#F19D38">
            <g id="污1-2" transform="translate(87.000000, 151.000000)">
                <g id="编组-6备份">
                    <path d="M8,0.615384615 C12.0784105,0.615384615 15.3846154,3.92158954 15.3846154,8 C15.3846154,12.0784105 12.0784105,15.3846154 8,15.3846154 C3.92158954,15.3846154 0.615384615,12.0784105 0.615384615,8 C0.615384615,3.92158954 3.92158954,0.615384615 8,0.615384615 Z M10.2199838,7.53846154 L5.86781112,7.53846154 L4.54747074,13.4628073 C5.54621287,14.0953424 6.7303416,14.4615385 8,14.4615385 C9.2811044,14.4615385 10.4751301,14.0887101 11.479495,13.4456355 L10.2199838,7.53846154 Z M8.46530816,5.69230769 L6.26069638,5.69230769 C6.00579572,5.69230769 5.79915792,5.91616532 5.79915792,6.19230769 C5.79915792,6.46845007 6.00579572,6.69230769 6.26069638,6.69230769 L8.46530816,6.69230769 C8.72020881,6.69230769 8.92684662,6.46845007 8.92684662,6.19230769 C8.92684662,5.91616532 8.72020881,5.69230769 8.46530816,5.69230769 Z M9.95921683,5.69230769 L9.84615385,5.69230769 C9.59125319,5.69230769 9.38461538,5.91616532 9.38461538,6.19230769 C9.38461538,6.46845007 9.59125319,6.69230769 9.84615385,6.69230769 L9.95921683,6.69230769 C10.2141175,6.69230769 10.4207553,6.46845007 10.4207553,6.19230769 C10.4207553,5.91616532 10.2141175,5.69230769 9.95921683,5.69230769 Z M6.61915431,3.84615385 L5.23076923,3.84615385 C4.97586858,3.84615385 4.76923077,4.07001147 4.76923077,4.34615385 C4.76923077,4.62229622 4.97586858,4.84615385 5.23076923,4.84615385 L6.61915431,4.84615385 C6.87405496,4.84615385 7.08069277,4.62229622 7.08069277,4.34615385 C7.08069277,4.07001147 6.87405496,3.84615385 6.61915431,3.84615385 Z M10.7403633,3.84615385 L8,3.84615385 C7.74509935,3.84615385 7.53846154,4.07001147 7.53846154,4.34615385 C7.53846154,4.62229622 7.74509935,4.84615385 8,4.84615385 L10.7403633,4.84615385 C10.995264,4.84615385 11.2019018,4.62229622 11.2019018,4.34615385 C11.2019018,4.07001147 10.995264,3.84615385 10.7403633,3.84615385 Z" id="形状结合备份-3"></path>
                </g>
            </g>
        </g>
    </g>
</svg>