<?xml version="1.0" encoding="UTF-8"?>
<svg width="24px" height="24px" viewBox="0 0 24 24" version="1.1" xmlns="http://www.w3.org/2000/svg" xmlns:xlink="http://www.w3.org/1999/xlink">
    <!-- Generator: Sketch 59 (86127) - https://sketch.com -->
    <title>污染</title>
    <desc>Created with Sketch.</desc>
    <g id="风" stroke="none" stroke-width="1" fill="none" fill-rule="evenodd">
        <g id="画板" transform="translate(-256.000000, -71.000000)">
            <g id="污染" transform="translate(256.000000, 71.000000)">
                <g id="编组-2备份-5" fill="#23435E">
                    <g id="编组-52备份-5">
                        <rect id="形状结合备份" x="0" y="0" width="24" height="24" rx="2"></rect>
                    </g>
                </g>
                <path d="M12.3076923,4 C16.8959041,4 20.6153846,7.71948054 20.6153846,12.3076923 C20.6153846,16.8959041 16.8959041,20.6153846 12.3076923,20.6153846 C7.71948054,20.6153846 4,16.8959041 4,12.3076923 C4,7.71948054 7.71948054,4 12.3076923,4 Z M12.3076923,5.10769231 C8.33124211,5.10769231 5.10769231,8.33124211 5.10769231,12.3076923 C5.10769231,16.2841425 8.33124211,19.5076923 12.3076923,19.5076923 C16.2841425,19.5076923 19.5076923,16.2841425 19.5076923,12.3076923 C19.5076923,8.33124211 16.2841425,5.10769231 12.3076923,5.10769231 Z M12.3076923,7.32307692 C15.0606194,7.32307692 17.2923077,9.55476525 17.2923077,12.3076923 C17.2923077,15.0606194 15.0606194,17.2923077 12.3076923,17.2923077 C9.55476525,17.2923077 7.32307692,15.0606194 7.32307692,12.3076923 C7.32307692,9.55476525 9.55476525,7.32307692 12.3076923,7.32307692 Z M12.3076923,8.43076923 C10.1665268,8.43076923 8.43076923,10.1665268 8.43076923,12.3076923 C8.43076923,14.4488578 10.1665268,16.1846154 12.3076923,16.1846154 C14.4488578,16.1846154 16.1846154,14.4488578 16.1846154,12.3076923 C16.1846154,10.1665268 14.4488578,8.43076923 12.3076923,8.43076923 Z M12.3076923,11.2 C12.9194539,11.2 13.4153846,11.6959307 13.4153846,12.3076923 C13.4153846,12.9194539 12.9194539,13.4153846 12.3076923,13.4153846 C11.6959307,13.4153846 11.2,12.9194539 11.2,12.3076923 C11.2,11.6959307 11.6959307,11.2 12.3076923,11.2 Z" id="形状结合" fill="#93AECE" fill-rule="nonzero"></path>
            </g>
        </g>
    </g>
</svg>