<?xml version="1.0" encoding="UTF-8"?>
<svg width="60px" height="24px" viewBox="0 0 60 24" version="1.1" xmlns="http://www.w3.org/2000/svg" xmlns:xlink="http://www.w3.org/1999/xlink">
    <!-- Generator: Sketch 59 (86127) - https://sketch.com -->
    <title>国2-1</title>
    <desc>Created with Sketch.</desc>
    <g id="风" stroke="none" stroke-width="1" fill="none" fill-rule="evenodd">
        <g id="画板" transform="translate(-19.000000, -256.000000)">
            <g id="国2-1" transform="translate(19.000000, 256.000000)">
                <rect id="矩形备份-43" fill="#46C96F" x="0" y="0" width="60" height="24" rx="1.6"></rect>
                <path d="M24,-5.32907052e-15 L24,24 L1.6,24 C0.7163444,24 -1.9264767e-15,23.2836556 -5.32907052e-15,22.4 L-5.32907052e-15,1.6 C-5.21524251e-15,0.7163444 0.7163444,-5.61083483e-15 1.6,-5.32907052e-15 L24,-5.32907052e-15 Z M12.0490639,3.64077684 L9.55097661,8.70245462 L3.96508354,9.51413239 L8.00707374,13.4540991 L7.05288929,19.0174213 L12.0490639,16.3907768 L17.0452386,19.0174213 L16.0910541,13.4540991 L20.1330443,9.51413239 L14.5471513,8.70245462 L12.0490639,3.64077684 Z" id="形状结合" fill="#1E3F5B"></path>
            </g>
        </g>
    </g>
</svg>