<?xml version="1.0" encoding="UTF-8"?>
<svg width="60px" height="24px" viewBox="0 0 60 24" version="1.1" xmlns="http://www.w3.org/2000/svg" xmlns:xlink="http://www.w3.org/1999/xlink">
    <!-- Generator: Sketch 59 (86127) - https://sketch.com -->
    <title>微2-1</title>
    <desc>Created with Sketch.</desc>
    <g id="风" stroke="none" stroke-width="1" fill="none" fill-rule="evenodd">
        <g id="画板" transform="translate(-19.000000, -347.000000)">
            <g id="微2-1" transform="translate(19.000000, 347.000000)">
                <rect id="矩形备份-43" fill="#46C96F" x="0" y="0" width="60" height="24" rx="1.6"></rect>
                <path d="M24,-5.32907052e-15 L24,24 L1.6,24 C0.7163444,24 -1.9264767e-15,23.2836556 -5.32907052e-15,22.4 L-5.32907052e-15,1.6 C-5.21524251e-15,0.7163444 0.7163444,-5.61083483e-15 1.6,-5.32907052e-15 L24,-5.32907052e-15 Z M12,4 C7.581722,4 4,7.581722 4,12 C4,16.418278 7.581722,20 12,20 C16.418278,20 20,16.418278 20,12 C20,7.581722 16.418278,4 12,4 Z" id="形状结合" fill="#1E3F5B"></path>
            </g>
        </g>
    </g>
</svg>