<?xml version="1.0" encoding="UTF-8"?>
<svg width="24px" height="24px" viewBox="0 0 24 24" version="1.1" xmlns="http://www.w3.org/2000/svg" xmlns:xlink="http://www.w3.org/1999/xlink">
    <!-- Generator: Sketch 59 (86127) - https://sketch.com -->
    <title>扬3</title>
    <desc>Created with Sketch.</desc>
    <g id="页面-1" stroke="none" stroke-width="1" fill="none" fill-rule="evenodd">
        <g id="大气-圆形icon" transform="translate(-161.000000, -175.000000)">
            <g id="扬3" transform="translate(161.000000, 175.000000)">
                <g id="编组-6">
                    <g id="编组-52备份-5" fill="#F19D38" stroke="#071E31">
                        <rect id="形状结合备份" x="0.5" y="0.5" width="23" height="23" rx="11.5"></rect>
                    </g>
                    <path d="M12,4.61538462 C16.0784105,4.61538462 19.3846154,7.92158954 19.3846154,12 C19.3846154,16.0784105 16.0784105,19.3846154 12,19.3846154 C7.92158954,19.3846154 4.61538462,16.0784105 4.61538462,12 C4.61538462,7.92158954 7.92158954,4.61538462 12,4.61538462 Z M14.2199838,11.5384615 L9.86781112,11.5384615 L8.54747074,17.4628073 C9.54621287,18.0953424 10.7303416,18.4615385 12,18.4615385 C13.2811044,18.4615385 14.4751301,18.0887101 15.479495,17.4456355 L14.2199838,11.5384615 Z M12.4653082,9.69230769 L10.2606964,9.69230769 C10.0057957,9.69230769 9.79915792,9.91616532 9.79915792,10.1923077 C9.79915792,10.4684501 10.0057957,10.6923077 10.2606964,10.6923077 L12.4653082,10.6923077 C12.7202088,10.6923077 12.9268466,10.4684501 12.9268466,10.1923077 C12.9268466,9.91616532 12.7202088,9.69230769 12.4653082,9.69230769 Z M13.9592168,9.69230769 L13.8461538,9.69230769 C13.5912532,9.69230769 13.3846154,9.91616532 13.3846154,10.1923077 C13.3846154,10.4684501 13.5912532,10.6923077 13.8461538,10.6923077 L13.9592168,10.6923077 C14.2141175,10.6923077 14.4207553,10.4684501 14.4207553,10.1923077 C14.4207553,9.91616532 14.2141175,9.69230769 13.9592168,9.69230769 Z M10.6191543,7.84615385 L9.23076923,7.84615385 C8.97586858,7.84615385 8.76923077,8.07001147 8.76923077,8.34615385 C8.76923077,8.62229622 8.97586858,8.84615385 9.23076923,8.84615385 L10.6191543,8.84615385 C10.874055,8.84615385 11.0806928,8.62229622 11.0806928,8.34615385 C11.0806928,8.07001147 10.874055,7.84615385 10.6191543,7.84615385 Z M14.7403633,7.84615385 L12,7.84615385 C11.7450993,7.84615385 11.5384615,8.07001147 11.5384615,8.34615385 C11.5384615,8.62229622 11.7450993,8.84615385 12,8.84615385 L14.7403633,8.84615385 C14.995264,8.84615385 15.2019018,8.62229622 15.2019018,8.34615385 C15.2019018,8.07001147 14.995264,7.84615385 14.7403633,7.84615385 Z" id="形状结合备份-3" fill="#FFFFFF"></path>
                </g>
            </g>
        </g>
    </g>
</svg>