<?xml version="1.0" encoding="UTF-8"?>
<svg width="24px" height="24px" viewBox="0 0 24 24" version="1.1" xmlns="http://www.w3.org/2000/svg" xmlns:xlink="http://www.w3.org/1999/xlink">
    <!-- Generator: Sketch 59 (86127) - https://sketch.com -->
    <title>扬尘5</title>
    <desc>Created with Sketch.</desc>
    <g id="风" stroke="none" stroke-width="1" fill="none" fill-rule="evenodd">
        <g id="画板" transform="translate(-555.000000, -362.000000)">
            <g id="扬尘5" transform="translate(555.000000, 362.000000)">
                <g id="编组-52备份-5" fill="#23435E">
                    <rect id="形状结合备份" x="0" y="0" width="24" height="24" rx="2"></rect>
                </g>
                <path d="M12,4 C16.418278,4 20,7.581722 20,12 C20,16.418278 16.418278,20 12,20 C7.581722,20 4,16.418278 4,12 C4,7.581722 7.581722,4 12,4 Z M14.4049824,11.5 L9.69012871,11.5 L8.2603725,17.9184291 C9.34221474,18.6034373 10.6247963,19 12,19 C13.3880561,19 14.6817507,18.5959903 15.7699068,17.8991478 L14.4049824,11.5 Z M12.5040838,9.5 L10.1157544,9.5 C9.83961203,9.5 9.61575441,9.74251243 9.61575441,10.0416667 C9.61575441,10.3408209 9.83961203,10.5833333 10.1157544,10.5833333 L12.5040838,10.5833333 C12.7802262,10.5833333 13.0040838,10.3408209 13.0040838,10.0416667 C13.0040838,9.74251243 12.7802262,9.5 12.5040838,9.5 Z M14.1224849,9.5 L14,9.5 C13.7238576,9.5 13.5,9.74251243 13.5,10.0416667 C13.5,10.3408209 13.7238576,10.5833333 14,10.5833333 L14.1224849,10.5833333 C14.3986273,10.5833333 14.6224849,10.3408209 14.6224849,10.0416667 C14.6224849,9.74251243 14.3986273,9.5 14.1224849,9.5 Z M10.5040838,7.5 L9,7.5 C8.72385763,7.5 8.5,7.74251243 8.5,8.04166667 C8.5,8.34082091 8.72385763,8.58333333 9,8.58333333 L10.5040838,8.58333333 C10.7802262,8.58333333 11.0040838,8.34082091 11.0040838,8.04166667 C11.0040838,7.74251243 10.7802262,7.5 10.5040838,7.5 Z M14.9687269,7.5 L12,7.5 C11.7238576,7.5 11.5,7.74251243 11.5,8.04166667 C11.5,8.34082091 11.7238576,8.58333333 12,8.58333333 L14.9687269,8.58333333 C15.2448693,8.58333333 15.4687269,8.34082091 15.4687269,8.04166667 C15.4687269,7.74251243 15.2448693,7.5 14.9687269,7.5 Z" id="形状结合备份-5" fill="#8B2293"></path>
            </g>
        </g>
    </g>
</svg>