<?xml version="1.0" encoding="UTF-8"?>
<svg width="60px" height="24px" viewBox="0 0 60 24" version="1.1" xmlns="http://www.w3.org/2000/svg" xmlns:xlink="http://www.w3.org/1999/xlink">
    <!-- Generator: Sketch 59 (86127) - https://sketch.com -->
    <title>污2-3</title>
    <desc>Created with Sketch.</desc>
    <g id="风" stroke="none" stroke-width="1" fill="none" fill-rule="evenodd">
        <g id="画板" transform="translate(-158.000000, -383.000000)">
            <g id="污2-3" transform="translate(158.000000, 383.000000)">
                <rect id="矩形备份-43" fill="#F8C900" x="0" y="0" width="60" height="24" rx="1.6"></rect>
                <g id="编组-2">
                    <g id="编组-52备份" fill="#1E3F5B">
                        <path d="M24,0 L24,24 L1.6,24 C0.7163444,24 3.40259382e-15,23.2836556 0,22.4 L0,1.6 C1.13828005e-16,0.7163444 0.7163444,-2.8176431e-16 1.6,0 L24,0 Z M12,3.69230769 C7.41178823,3.69230769 3.69230769,7.41178823 3.69230769,12 C3.69230769,16.5882118 7.41178823,20.3076923 12,20.3076923 C16.5882118,20.3076923 20.3076923,16.5882118 20.3076923,12 C20.3076923,7.41178823 16.5882118,3.69230769 12,3.69230769 Z M12,4.8 C15.9764502,4.8 19.2,8.0235498 19.2,12 C19.2,15.9764502 15.9764502,19.2 12,19.2 C8.0235498,19.2 4.8,15.9764502 4.8,12 C4.8,8.0235498 8.0235498,4.8 12,4.8 Z M12,7.01538462 C9.24707294,7.01538462 7.01538462,9.24707294 7.01538462,12 C7.01538462,14.7529271 9.24707294,16.9846154 12,16.9846154 C14.7529271,16.9846154 16.9846154,14.7529271 16.9846154,12 C16.9846154,9.24707294 14.7529271,7.01538462 12,7.01538462 Z M12,8.12307692 C14.1411655,8.12307692 15.8769231,9.85883451 15.8769231,12 C15.8769231,14.1411655 14.1411655,15.8769231 12,15.8769231 C9.85883451,15.8769231 8.12307692,14.1411655 8.12307692,12 C8.12307692,9.85883451 9.85883451,8.12307692 12,8.12307692 Z M12,10.8923077 C11.3882384,10.8923077 10.8923077,11.3882384 10.8923077,12 C10.8923077,12.6117616 11.3882384,13.1076923 12,13.1076923 C12.6117616,13.1076923 13.1076923,12.6117616 13.1076923,12 C13.1076923,11.3882384 12.6117616,10.8923077 12,10.8923077 Z" id="形状结合"></path>
                    </g>
                    <g id="编组-51" transform="translate(3.692308, 3.692308)"></g>
                </g>
            </g>
        </g>
    </g>
</svg>