<?xml version="1.0" encoding="UTF-8"?>
<svg width="24px" height="24px" viewBox="0 0 24 24" version="1.1" xmlns="http://www.w3.org/2000/svg" xmlns:xlink="http://www.w3.org/1999/xlink">
    <!-- Generator: Sketch 59 (86127) - https://sketch.com -->
    <title>2-2</title>
    <desc>Created with Sketch.</desc>
    <g id="页面-1" stroke="none" stroke-width="1" fill="none" fill-rule="evenodd">
        <g id="大气-圆形icon" transform="translate(-214.000000, -293.000000)">
            <g id="2-2" transform="translate(214.000000, 293.000000)">
                <g id="编组-3">
                    <rect id="形状结合备份-6" stroke="#071E31" stroke-width="0.8" fill="#46C96F" x="0.4" y="0.4" width="23.2" height="23.2" rx="11.6"></rect>
                    <g id="编组-3备份-6" transform="translate(4.000000, 4.000000)">
                        <g id="编组-3备份-2">
                            <path d="M7.88676863,5.56048692 L8.05508933,5.56593222 C9.39047583,5.65260732 10.4467686,6.76319191 10.4467686,8.12048692 C10.4467686,9.30155248 9.64696414,10.2958137 8.55942779,10.5911979 L8.59059343,10.5825196 L8.59059343,10.5825196 L12.2546468,14.4382972 C11.0146017,15.2972367 9.50945534,15.8004869 7.88676863,15.8004869 C6.39899848,15.8004869 5.01003571,15.3774422 3.8336102,14.6450827 L7.24806517,10.6001691 L7.26191081,10.6036835 C6.15009042,10.3247972 5.32676863,9.3187906 5.32676863,8.12048692 C5.32676863,6.70663796 6.47291967,5.56048692 7.88676863,5.56048692 L7.88676863,5.56048692 Z M7.88676863,0.440486915 C12.1283155,0.440486915 15.5667686,3.87894004 15.5667686,8.12048692 C15.5667686,10.2322528 14.7144419,12.1449472 13.3350287,13.5333296 L12.4269425,12.6312323 C13.5764787,11.4742434 14.2867686,9.88031374 14.2867686,8.12048692 C14.2867686,4.58586452 11.421391,1.72048692 7.88676863,1.72048692 C4.35214623,1.72048692 1.48676863,4.58586452 1.48676863,8.12048692 C1.48676863,9.97047365 2.27170245,11.6371293 3.52669712,12.8055808 L2.65555711,13.7434135 C1.14905377,12.3412317 0.206768629,10.3409006 0.206768629,8.12048692 C0.206768629,3.87894004 3.64522175,0.440486915 7.88676863,0.440486915 Z M7.88676863,3.00048692 C10.7144665,3.00048692 13.0067686,5.292789 13.0067686,8.12048692 C13.0067686,9.52820869 12.4386494,10.8032391 11.5191814,11.7288077 L10.6107958,10.8270118 C11.3005629,10.1328122 11.7267686,9.17642238 11.7267686,8.12048692 C11.7267686,5.99971348 10.0075421,4.28048692 7.88676863,4.28048692 C5.76599519,4.28048692 4.04676863,5.99971348 4.04676863,8.12048692 C4.04676863,9.23033197 4.5176042,10.2302075 5.2704266,10.9312647 L4.39970033,11.8694825 C3.39512804,10.9346762 2.76676863,9.60096216 2.76676863,8.12048692 C2.76676863,5.292789 5.05907071,3.00048692 7.88676863,3.00048692 Z M8.09551614,10.6720987 L8.06418991,10.6744348 L8.06418991,10.6744348 L7.88676863,10.6804869 C7.95704855,10.6804869 8.02666702,10.6776549 8.09551614,10.6720987 Z M7.6398695,10.6687341 L7.66853808,10.6713158 C7.6590815,10.6705175 7.64963955,10.6696678 7.64021252,10.6687669 L7.6398695,10.6687341 Z M8.26052818,10.653398 L8.24373224,10.6557981 L8.24373224,10.6557981 C8.24910857,10.6550488 8.25482143,10.6542328 8.26052818,10.653398 Z M7.4405512,10.6417331 L7.24806517,10.6001691 C7.32314981,10.6194523 7.3995661,10.6354152 7.47714825,10.6478919 L7.4405512,10.6417331 L7.4405512,10.6417331 Z M8.48010807,10.611376 L8.40684722,10.6276241 L8.40684722,10.6276241 C8.43132726,10.6225734 8.45578484,10.6171482 8.48010807,10.611376 Z" id="形状结合" fill="#FFFFFF"></path>
                            <g id="椭圆形-+-椭圆形-蒙版"></g>
                        </g>
                    </g>
                </g>
            </g>
        </g>
    </g>
</svg>