<?xml version="1.0" encoding="UTF-8"?>
<svg width="16px" height="16px" viewBox="0 0 16 16" version="1.1" xmlns="http://www.w3.org/2000/svg" xmlns:xlink="http://www.w3.org/1999/xlink">
    <!-- Generator: Sketch 59 (86127) - https://sketch.com -->
    <title>2-4</title>
    <desc>Created with Sketch.</desc>
    <g id="页面-1" stroke="none" stroke-width="1" fill="none" fill-rule="evenodd">
        <g id="大气-圆形icon" transform="translate(-299.000000, -296.000000)">
            <g id="2-4" transform="translate(299.000000, 296.000000)">
                <g id="编组-3备份-2">
                    <path d="M7.68,5.12 L7.8483207,5.1254453 C9.1837072,5.2121204 10.24,6.322705 10.24,7.68 C10.24,8.86106557 9.44019551,9.85532679 8.35265916,10.150711 L8.38313455,10.1422296 L8.38313455,10.1422296 L12.0479835,13.9977374 C10.8079182,14.8567214 9.30273263,15.36 7.68,15.36 C6.19212753,15.36 4.80307604,14.9368971 3.62659886,14.2044447 L7.04040249,10.1594524 L7.06405875,10.165416 C5.94772653,9.88968381 5.12,8.88150485 5.12,7.68 C5.12,6.26615104 6.26615104,5.12 7.68,5.12 L7.68,5.12 Z M7.68,6.83897383e-14 C11.9215469,6.83897383e-14 15.36,3.43845312 15.36,7.68 C15.36,9.79176591 14.5076733,11.7044602 13.1282601,13.0928427 L12.2201738,12.1907454 C13.36971,11.0337565 14.08,9.43982682 14.08,7.68 C14.08,4.1453776 11.2146224,1.28 7.68,1.28 C4.1453776,1.28 1.28,4.1453776 1.28,7.68 C1.28,9.52998674 2.06493382,11.1966424 3.3199285,12.3650939 L2.44878848,13.3029265 C0.942285137,11.9007448 0,9.90041365 0,7.68 C0,3.43845312 3.43845312,6.83897383e-14 7.68,6.83897383e-14 Z M7.68,2.56 C10.5076979,2.56 12.8,4.85230208 12.8,7.68 C12.8,9.08772177 12.2318808,10.3627522 11.3124128,11.2883208 L10.4040271,10.3865249 C11.0937942,9.69232525 11.52,8.73593547 11.52,7.68 C11.52,5.55922656 9.80077344,3.84 7.68,3.84 C5.55922656,3.84 3.84,5.55922656 3.84,7.68 C3.84,8.78984506 4.31083557,9.78972057 5.06365797,10.4907778 L4.1929317,11.4289956 C3.18835941,10.4941893 2.56,9.16047524 2.56,7.68 C2.56,4.85230208 4.85230208,2.56 7.68,2.56 Z M7.888535,10.2316289 L7.85742128,10.2339479 L7.85742128,10.2339479 L7.68,10.24 C7.75020762,10.24 7.81975514,10.2371738 7.888535,10.2316289 Z M7.43310087,10.2282472 L7.46145442,10.2308023 C7.45198436,10.2300016 7.44252898,10.2291495 7.43308856,10.228246 L7.43310087,10.2282472 Z M8.05338297,10.2129662 L8.03696361,10.2153112 L8.03696361,10.2153112 C8.04197458,10.2146136 8.04768182,10.2137993 8.05338297,10.2129662 Z M7.23378257,10.2012462 L7.04040249,10.1594524 C7.11558615,10.1787902 7.19210601,10.1947986 7.26979555,10.207311 L7.23378257,10.2012462 L7.23378257,10.2012462 Z M8.27275164,10.1710285 L8.20007859,10.1871372 L8.20007859,10.1871372 C8.22401688,10.1822036 8.24845128,10.1767892 8.27275164,10.1710285 Z" id="形状结合" fill="#D7E9FF"></path>
                    <g id="椭圆形-+-椭圆形-蒙版"></g>
                </g>
            </g>
        </g>
    </g>
</svg>